<svg xmlns="http://www.w3.org/2000/svg" width="18" height="18" viewBox="0 0 18 18">
  <path id="Union_2" data-name="Union 2" d="M9,18A8.979,8.979,0,0,1,0,9.012s0,0,0-.006S0,9,0,9A9,9,0,0,1,8.944,0h.147A9,9,0,0,1,18,9s0,0,0,.007,0,0,0,.005A8.979,8.979,0,0,1,9,18Zm0-1.406a7.551,7.551,0,0,0,4.438-1.435,4.44,4.44,0,0,0-8.876,0A7.553,7.553,0,0,0,9,16.594ZM12.493,7.36a3.486,3.486,0,0,1-1.142,2.581A5.868,5.868,0,0,1,14.7,14.008a7.56,7.56,0,0,0,1.178-8.2l0,0a7.625,7.625,0,0,0-5.262-4.22l-.011.011A7.583,7.583,0,0,0,3.3,14.008,5.87,5.87,0,0,1,6.649,9.941,3.492,3.492,0,1,1,12.493,7.36Zm-5.58,0A2.087,2.087,0,1,0,9,5.274,2.089,2.089,0,0,0,6.913,7.36Z" fill="#008837"/>
</svg>
