<svg xmlns="http://www.w3.org/2000/svg" width="14.524" height="14.334" viewBox="0 0 14.524 14.334">
  <g id="share" transform="translate(0 -3.343)">
    <g id="Group_1395" data-name="Group 1395" transform="translate(0 3.343)">
      <path id="Path_679" data-name="Path 679" d="M14.524,10.1,7.762,3.343v4.43A8.2,8.2,0,0,0,0,15.963v1.714l.825-1.5a7.328,7.328,0,0,1,6.427-3.8c.17,0,.341.006.511.018v4.476ZM7.252,11.494A8.21,8.21,0,0,0,1.07,14.3,7.336,7.336,0,0,1,8.2,8.64h.439V5.465l4.64,4.64-4.64,4.64V11.6l-.385-.048A8.2,8.2,0,0,0,7.252,11.494Z" transform="translate(0 -3.343)" fill="#6c6e70"/>
    </g>
  </g>
</svg>
