<svg xmlns="http://www.w3.org/2000/svg" width="119.135" height="20.963" viewBox="0 0 119.135 20.963">
  <g id="Group_1385" data-name="Group 1385" transform="translate(0 0.234)">
    <g id="Group_1" data-name="Group 1" transform="translate(0 0)">
      <path id="Path_7" data-name="Path 7" d="M403.227,263.167h1.527a1.326,1.326,0,0,0,.789-.195.623.623,0,0,0,.269-.529v-9.707a.484.484,0,0,0-.269-.442,2.151,2.151,0,0,0-.972-.154h-2.663a1.507,1.507,0,0,0-.743.148.484.484,0,0,0-.255.439v9.765a.527.527,0,0,0,.251.486,1.882,1.882,0,0,0,.925.189Zm6.942-15.9h2.651l2.606,2.883H413.6l-2.1-1.679-2.183,1.679h-1.6Zm1.294,17.836a1.41,1.41,0,1,1-1.41,1.411,1.411,1.411,0,0,1,1.41-1.411M433.7,251.355l.4,4.784H433a8.491,8.491,0,0,0-.437-1.364,4.84,4.84,0,0,0-.259-.544,3.718,3.718,0,0,0-.309-.489,3.519,3.519,0,0,0-1.4-1.209,4.091,4.091,0,0,0-1.733-.376,1.549,1.549,0,0,0-.795.157.509.509,0,0,0-.256.457v9.757a.506.506,0,0,0,.243.468,1.1,1.1,0,0,0,.605.172h2.03v.785h-9.54v-.785h1.923a1.173,1.173,0,0,0,.688-.174.545.545,0,0,0,.247-.465v-9.7a.583.583,0,0,0-.263-.5,1.585,1.585,0,0,0-.807-.163c-2.046,0-3.43.934-4.155,3.59-.549,0-.982.011-1.486.011a5.884,5.884,0,0,0-.871-2.245A3.217,3.217,0,0,0,415,252.486a6.334,6.334,0,0,0-2.253-.346h-2.312a1.485,1.485,0,0,0-.769.157.492.492,0,0,0-.25.439v4.377h.788a3.35,3.35,0,0,0,2.1-.579,2.409,2.409,0,0,0,.637-.791,2.28,2.28,0,0,0,.258-1.079h1.027v5.868h-1.027a3.005,3.005,0,0,0-.231-1.224,2.172,2.172,0,0,0-.629-.832,3.658,3.658,0,0,0-2.276-.6h-.652v4.664a.452.452,0,0,0,.242.434,2.489,2.489,0,0,0,1.051.189h2.038a5.553,5.553,0,0,0,3.409-1,4.434,4.434,0,0,0,1.656-3.013h1.031l-.25,4.8H394.521v-.785h1.372a4.274,4.274,0,0,0,.617-.035A1,1,0,0,0,396.9,263a.545.545,0,0,0,.284-.5v-9.655a.578.578,0,0,0-.268-.526,1.574,1.574,0,0,0-.832-.172h-.553a1.918,1.918,0,0,0-1.08.317,3.11,3.11,0,0,0-.933,1.166l-5.576,10.608h-1.329l-5.973-11.147a1.7,1.7,0,0,0-.691-.75,2.961,2.961,0,0,0-1.246-.195h-.344v-.785h8.011v.785H385.5a3.436,3.436,0,0,0-1.193.131c-.193.09-.291.209-.291.363a1.729,1.729,0,0,0,.257.684l4.093,7.636,3.363-6.523a2.793,2.793,0,0,0,.14-.3c.038-.1.083-.239.132-.4a1.987,1.987,0,0,0,.072-.518.91.91,0,0,0-.4-.791,2.2,2.2,0,0,0-1.246-.282h-.74v-.785H433.7Z" transform="translate(-314.964 -247.191)"/>
      <path id="Path_8" data-name="Path 8" d="M148.464,262.1h9.477a12.153,12.153,0,0,1,4.517.764,7.094,7.094,0,0,1,3.057,2.217,5.164,5.164,0,0,1,1.131,3.245,5.3,5.3,0,0,1-1,3.233,6.874,6.874,0,0,1-3.033,2.2,11.223,11.223,0,0,1-4.322.834h-9.823v-.779h1.464a1.355,1.355,0,0,0,.8-.2.674.674,0,0,0,.285-.585v-9.413a.622.622,0,0,0-.285-.548,1.928,1.928,0,0,0-.964-.179h-1.3Zm8.66,11.714a6.808,6.808,0,0,0,2.871-.583,3.854,3.854,0,0,0,1.842-1.6,6.658,6.658,0,0,0,.565-3.123,7.252,7.252,0,0,0-.643-3.406,3.781,3.781,0,0,0-1.793-1.69,8.464,8.464,0,0,0-3.342-.516,4.613,4.613,0,0,0-1.5.145.526.526,0,0,0-.3.522v9.459a.711.711,0,0,0,.252.608,1.292,1.292,0,0,0,.772.185Z" transform="translate(-148.464 -257.936)"/>
      <path id="Path_9" data-name="Path 9" d="M294.6,262.1h5.591l9.766,8.568v-5.829a1.63,1.63,0,0,0-.707-1.378,2.779,2.779,0,0,0-.861-.43,3.926,3.926,0,0,0-1.152-.153V262.1h6.58v.778a3.637,3.637,0,0,0-1.968.571,1.665,1.665,0,0,0-.595,1.39v9.754h-1.406l-11.122-9.872v6.844a1.941,1.941,0,0,0,.774,1.7,3.234,3.234,0,0,0,1.921.551h.3v.779h-7.271v-.779h.495a2.777,2.777,0,0,0,1.793-.588,1.862,1.862,0,0,0,.736-1.526v-8.087a2.948,2.948,0,0,0-2.076-.735h-.8Z" transform="translate(-254.194 -257.936)"/>
      <path id="Path_10" data-name="Path 10" d="M216.1,253.953a.471.471,0,1,1-.472-.815l10.427-6.075a.472.472,0,0,1,.5.016l9.97,5.869a.47.47,0,1,1-.476.811l-9.756-5.743Z" transform="translate(-196.934 -247)"/>
      <path id="Path_11" data-name="Path 11" d="M216.1,253.953a.471.471,0,1,1-.472-.815l10.427-6.075a.472.472,0,0,1,.5.016l9.97,5.869a.47.47,0,1,1-.476.811l-9.756-5.743Z" transform="translate(-196.934 -247)" fill="none" stroke="#000" stroke-miterlimit="2.613" stroke-width="0.45"/>
      <path id="Path_12" data-name="Path 12" d="M224.853,255.628c-2.325,1.343-7.918,4.494-7.918,4.494a1.429,1.429,0,0,0-.811,1.185c-.05.86,0,6.068,0,6.068s-.2,2.326,3.186,2.326h4.3v-5.41s-.354-1.365,3.084-1.365c.033,0,.065,0,.1,0s.064,0,.1,0c3.438,0,3.084,1.365,3.084,1.365v5.41h4.3c3.388,0,3.185-2.326,3.185-2.326s.051-5.208,0-6.068a1.429,1.429,0,0,0-.81-1.185s-5.83-3.284-8.06-4.576c-1.883-1.091-1.862-1-3.73.082" transform="translate(-197.45 -252.629)" fill="#008837"/>
    </g>
  </g>
</svg>
