<svg width="271" height="18" viewBox="0 0 271 18" fill="none" xmlns="http://www.w3.org/2000/svg">
<path d="M6.72 13.676C5.472 13.676 4.4 13.436 3.504 12.956C2.608 12.476 1.92 11.7987 1.44 10.924C0.970667 10.0493 0.736 9.02533 0.736 7.852C0.736 6.67867 0.970667 5.66 1.44 4.796C1.92 3.92133 2.608 3.244 3.504 2.764C4.4 2.284 5.472 2.044 6.72 2.044C7.46667 2.044 8.18667 2.16133 8.88 2.396C9.57333 2.62 10.1333 2.91867 10.56 3.292L9.68 5.612C9.21067 5.27067 8.74133 5.02 8.272 4.86C7.80267 4.68933 7.32267 4.604 6.832 4.604C5.84 4.604 5.09333 4.88667 4.592 5.452C4.09067 6.00667 3.84 6.80667 3.84 7.852C3.84 8.908 4.09067 9.71867 4.592 10.284C5.09333 10.8387 5.84 11.116 6.832 11.116C7.32267 11.116 7.80267 11.036 8.272 10.876C8.74133 10.7053 9.21067 10.4493 9.68 10.108L10.56 12.428C10.1333 12.8013 9.57333 13.1053 8.88 13.34C8.18667 13.564 7.46667 13.676 6.72 13.676ZM11.8164 13.5V2.22H14.6644V6.604C15.2297 5.836 16.051 5.452 17.1284 5.452C18.067 5.452 18.7604 5.72933 19.2084 6.284C19.667 6.83867 19.8964 7.692 19.8964 8.844V13.5H17.0484V8.956C17.0484 8.476 16.963 8.13467 16.7924 7.932C16.6324 7.72933 16.3924 7.628 16.0724 7.628C15.6457 7.628 15.3044 7.76667 15.0484 8.044C14.7924 8.31067 14.6644 8.67333 14.6644 9.132V13.5H11.8164ZM24.4635 13.676C23.4395 13.676 22.6822 13.3987 22.1915 12.844C21.7115 12.2787 21.4715 11.42 21.4715 10.268V5.628H24.3195V10.348C24.3195 11.116 24.6502 11.5 25.3115 11.5C25.6955 11.5 26.0102 11.3613 26.2555 11.084C26.5008 10.8067 26.6235 10.4387 26.6235 9.98V5.628H29.4715V13.5H26.6875V12.524C26.1755 13.292 25.4342 13.676 24.4635 13.676ZM31.6089 16.38L33.1929 12.956L29.9769 5.628H32.9689L34.6969 10.092L36.4889 5.628H39.3049L34.4889 16.38H31.6089ZM43.87 13.676C42.91 13.676 42.078 13.5107 41.374 13.18C40.6807 12.8387 40.1473 12.3587 39.774 11.74C39.4007 11.1213 39.214 10.3907 39.214 9.548C39.214 8.748 39.39 8.03867 39.742 7.42C40.1047 6.80133 40.5953 6.32133 41.214 5.98C41.8433 5.628 42.558 5.452 43.358 5.452C44.1473 5.452 44.83 5.61733 45.406 5.948C45.9927 6.27867 46.4407 6.75333 46.75 7.372C47.07 7.98 47.23 8.69467 47.23 9.516V10.14H41.934C42.03 10.652 42.2433 11.02 42.574 11.244C42.9047 11.468 43.3633 11.58 43.95 11.58C44.3553 11.58 44.7767 11.5213 45.214 11.404C45.662 11.276 46.0567 11.0947 46.398 10.86L47.102 12.732C46.6967 13.02 46.2007 13.2493 45.614 13.42C45.0273 13.5907 44.446 13.676 43.87 13.676ZM43.486 7.292C43.0593 7.292 42.7073 7.42 42.43 7.676C42.1633 7.932 41.9927 8.30533 41.918 8.796H44.894C44.862 8.29467 44.7233 7.92133 44.478 7.676C44.2433 7.42 43.9127 7.292 43.486 7.292ZM40.43 4.588L42.206 1.308H44.574L46.35 4.588H44.622L43.39 2.78L42.158 4.588H40.43ZM48.457 13.5V5.628H51.225V6.7C51.5023 6.29467 51.8597 5.98533 52.297 5.772C52.7343 5.55867 53.225 5.452 53.769 5.452C54.7077 5.452 55.401 5.72933 55.849 6.284C56.3077 6.83867 56.537 7.692 56.537 8.844V13.5H53.689V8.956C53.689 8.476 53.6037 8.13467 53.433 7.932C53.273 7.72933 53.033 7.628 52.713 7.628C52.2863 7.628 51.945 7.76667 51.689 8.044C51.433 8.31067 51.305 8.67333 51.305 9.132V13.5H48.457ZM66.8663 13.676C65.6716 13.676 64.7863 13.3987 64.2103 12.844C63.6343 12.2893 63.3463 11.452 63.3463 10.332V7.724H61.8742V5.628H63.3463V3.34H66.1943V5.628H68.4343V7.724H66.1943V10.236C66.1943 11.004 66.5836 11.388 67.3623 11.388C67.4903 11.388 67.6289 11.3773 67.7783 11.356C67.9383 11.324 68.1143 11.2813 68.3063 11.228L68.6903 13.276C68.4449 13.404 68.1569 13.5 67.8263 13.564C67.4956 13.6387 67.1756 13.676 66.8663 13.676ZM69.5508 13.5V5.628H72.3188V6.956C72.6814 6.04933 73.4654 5.55333 74.6708 5.468L75.4548 5.404L75.6148 7.804L74.0628 7.948C73.4974 8.00133 73.0868 8.16133 72.8307 8.428C72.5748 8.684 72.4468 9.068 72.4468 9.58V13.5H69.5508ZM79.1461 13.676C78.5381 13.676 77.9995 13.564 77.5301 13.34C77.0715 13.116 76.7088 12.812 76.4421 12.428C76.1861 12.0333 76.0581 11.5853 76.0581 11.084C76.0581 10.5187 76.2075 10.0707 76.5061 9.74C76.8048 9.39867 77.2848 9.15867 77.9461 9.02C78.6075 8.87067 79.4875 8.796 80.5861 8.796H81.1941V8.572C81.1941 8.188 81.0928 7.916 80.8901 7.756C80.6981 7.596 80.3621 7.516 79.8821 7.516C79.4768 7.516 79.0288 7.58 78.5381 7.708C78.0475 7.836 77.5675 8.03333 77.0981 8.3L76.3781 6.428C76.6448 6.236 76.9861 6.06533 77.4021 5.916C77.8181 5.76667 78.2555 5.65467 78.7141 5.58C79.1728 5.49467 79.6048 5.452 80.0101 5.452C81.3221 5.452 82.2928 5.73467 82.9221 6.3C83.5621 6.86533 83.8821 7.756 83.8821 8.972V13.5H81.2261V12.38C81.0875 12.7853 80.8368 13.1053 80.4741 13.34C80.1115 13.564 79.6688 13.676 79.1461 13.676ZM79.7861 11.82C80.1808 11.82 80.5115 11.692 80.7781 11.436C81.0555 11.18 81.1941 10.844 81.1941 10.428V10.14H80.5861C79.9568 10.14 79.4928 10.2093 79.1941 10.348C78.9061 10.476 78.7621 10.684 78.7621 10.972C78.7621 11.2173 78.8475 11.42 79.0181 11.58C79.1995 11.74 79.4555 11.82 79.7861 11.82ZM85.5039 13.5V5.628H88.2719V6.7C88.5492 6.29467 88.9065 5.98533 89.3439 5.772C89.7812 5.55867 90.2719 5.452 90.8159 5.452C91.7545 5.452 92.4479 5.72933 92.8959 6.284C93.3545 6.83867 93.5839 7.692 93.5839 8.844V13.5H90.7359V8.956C90.7359 8.476 90.6505 8.13467 90.4799 7.932C90.3199 7.72933 90.0799 7.628 89.7599 7.628C89.3332 7.628 88.9919 7.76667 88.7359 8.044C88.4799 8.31067 88.3519 8.67333 88.3519 9.132V13.5H85.5039ZM99.111 16.556C98.3217 16.556 97.5803 16.4813 96.887 16.332C96.2043 16.1827 95.6177 15.9373 95.127 15.596L95.863 13.676C96.2683 13.9213 96.7483 14.1133 97.303 14.252C97.8683 14.3907 98.3803 14.46 98.839 14.46C99.4897 14.46 99.975 14.3213 100.295 14.044C100.626 13.7773 100.791 13.356 100.791 12.78V12.044C100.567 12.428 100.231 12.732 99.783 12.956C99.335 13.18 98.855 13.292 98.343 13.292C97.639 13.292 97.0257 13.132 96.503 12.812C95.9803 12.4813 95.5697 12.0227 95.271 11.436C94.983 10.8493 94.839 10.1613 94.839 9.372C94.839 8.58267 94.983 7.89467 95.271 7.308C95.5697 6.72133 95.9803 6.268 96.503 5.948C97.0257 5.61733 97.639 5.452 98.343 5.452C98.8763 5.452 99.3617 5.56933 99.799 5.804C100.247 6.028 100.572 6.32667 100.775 6.7V5.628H103.559V12.444C103.559 13.82 103.175 14.8493 102.407 15.532C101.639 16.2147 100.54 16.556 99.111 16.556ZM99.223 11.196C99.6923 11.196 100.066 11.036 100.343 10.716C100.62 10.396 100.759 9.948 100.759 9.372C100.759 8.796 100.62 8.348 100.343 8.028C100.066 7.708 99.6923 7.548 99.223 7.548C98.7643 7.548 98.3963 7.708 98.119 8.028C97.8417 8.348 97.703 8.796 97.703 9.372C97.703 9.948 97.8417 10.396 98.119 10.716C98.3963 11.036 98.7643 11.196 99.223 11.196ZM113.929 13.676C112.734 13.676 111.849 13.3987 111.273 12.844C110.697 12.2893 110.409 11.452 110.409 10.332V7.724H108.937V5.628H110.409V3.34H113.257V5.628H115.497V7.724H113.257V10.236C113.257 11.004 113.646 11.388 114.425 11.388C114.553 11.388 114.691 11.3773 114.841 11.356C115.001 11.324 115.177 11.2813 115.369 11.228L115.753 13.276C115.507 13.404 115.219 13.5 114.889 13.564C114.558 13.6387 114.238 13.676 113.929 13.676ZM116.613 13.5V5.628H119.381V6.956C119.744 6.04933 120.528 5.55333 121.733 5.468L122.517 5.404L122.677 7.804L121.125 7.948C120.56 8.00133 120.149 8.16133 119.893 8.428C119.637 8.684 119.509 9.068 119.509 9.58V13.5H116.613ZM126.495 13.676C125.471 13.676 124.713 13.3987 124.223 12.844C123.743 12.2787 123.503 11.42 123.503 10.268V5.628H126.351V10.348C126.351 11.116 126.681 11.5 127.343 11.5C127.727 11.5 128.041 11.3613 128.287 11.084C128.532 10.8067 128.655 10.4387 128.655 9.98V5.628H131.503V13.5H128.719V12.524C128.207 13.292 127.465 13.676 126.495 13.676ZM133.64 16.38L135.224 12.956L132.008 5.628H135L136.728 10.092L138.52 5.628H141.336L136.52 16.38H133.64ZM145.901 13.676C144.941 13.676 144.109 13.5107 143.405 13.18C142.712 12.8387 142.179 12.3587 141.805 11.74C141.432 11.1213 141.245 10.3907 141.245 9.548C141.245 8.748 141.421 8.03867 141.773 7.42C142.136 6.80133 142.627 6.32133 143.245 5.98C143.875 5.628 144.589 5.452 145.389 5.452C146.179 5.452 146.861 5.61733 147.437 5.948C148.024 6.27867 148.472 6.75333 148.781 7.372C149.101 7.98 149.261 8.69467 149.261 9.516V10.14H143.965C144.061 10.652 144.275 11.02 144.605 11.244C144.936 11.468 145.395 11.58 145.981 11.58C146.387 11.58 146.808 11.5213 147.245 11.404C147.693 11.276 148.088 11.0947 148.429 10.86L149.133 12.732C148.728 13.02 148.232 13.2493 147.645 13.42C147.059 13.5907 146.477 13.676 145.901 13.676ZM145.517 7.292C145.091 7.292 144.739 7.42 144.461 7.676C144.195 7.932 144.024 8.30533 143.949 8.796H146.925C146.893 8.29467 146.755 7.92133 146.509 7.676C146.275 7.42 145.944 7.292 145.517 7.292ZM148.061 2.844L146.077 0.443999H148.269L149.565 2.844H148.061ZM142.461 4.588L144.237 1.948H146.605L148.381 4.588H146.653L145.421 3.356L144.189 4.588H142.461ZM150.488 13.5V5.628H153.256V6.7C153.534 6.29467 153.891 5.98533 154.328 5.772C154.766 5.55867 155.256 5.452 155.8 5.452C156.739 5.452 157.432 5.72933 157.88 6.284C158.339 6.83867 158.568 7.692 158.568 8.844V13.5H155.72V8.956C155.72 8.476 155.635 8.13467 155.464 7.932C155.304 7.72933 155.064 7.628 154.744 7.628C154.318 7.628 153.976 7.76667 153.72 8.044C153.464 8.31067 153.336 8.67333 153.336 9.132V13.5H150.488ZM164.77 13.5V2.22H167.618V6.604C168.183 5.836 169.004 5.452 170.082 5.452C171.02 5.452 171.714 5.72933 172.161 6.284C172.62 6.83867 172.85 7.692 172.85 8.844V13.5H170.002V8.956C170.002 8.476 169.916 8.13467 169.746 7.932C169.586 7.72933 169.346 7.628 169.026 7.628C168.599 7.628 168.258 7.76667 168.002 8.044C167.746 8.31067 167.618 8.67333 167.618 9.132V13.5H164.77ZM174.473 13.5V5.628H177.321V13.5H174.473ZM174.969 4.588L172.505 1.308H175.177L176.793 4.588H174.969ZM178.973 13.5V5.628H181.741V6.7C182.018 6.29467 182.375 5.98533 182.813 5.772C183.25 5.55867 183.741 5.452 184.285 5.452C185.223 5.452 185.917 5.72933 186.365 6.284C186.823 6.83867 187.053 7.692 187.053 8.844V13.5H184.205V8.956C184.205 8.476 184.119 8.13467 183.949 7.932C183.789 7.72933 183.549 7.628 183.229 7.628C182.802 7.628 182.461 7.76667 182.205 8.044C181.949 8.31067 181.821 8.67333 181.821 9.132V13.5H178.973ZM188.676 13.5V2.22H191.524V6.604C192.089 5.836 192.91 5.452 193.988 5.452C194.926 5.452 195.62 5.72933 196.068 6.284C196.526 6.83867 196.756 7.692 196.756 8.844V13.5H193.908V8.956C193.908 8.476 193.822 8.13467 193.652 7.932C193.492 7.72933 193.252 7.628 192.932 7.628C192.505 7.628 192.164 7.76667 191.908 8.044C191.652 8.31067 191.524 8.67333 191.524 9.132V13.5H188.676ZM203.149 13.5V2.22H207.821C209.773 2.22 211.288 2.71067 212.365 3.692C213.442 4.67333 213.981 6.06 213.981 7.852C213.981 9.644 213.442 11.036 212.365 12.028C211.288 13.0093 209.773 13.5 207.821 13.5H203.149ZM206.093 11.116H207.629C208.749 11.116 209.576 10.8493 210.109 10.316C210.653 9.772 210.925 8.95067 210.925 7.852C210.925 6.75333 210.653 5.93733 210.109 5.404C209.565 4.87067 208.738 4.604 207.629 4.604H206.093V11.116ZM218.271 13.676C217.663 13.676 217.124 13.564 216.655 13.34C216.196 13.116 215.834 12.812 215.567 12.428C215.311 12.0333 215.183 11.5853 215.183 11.084C215.183 10.5187 215.332 10.0707 215.631 9.74C215.93 9.39867 216.41 9.15867 217.071 9.02C217.732 8.87067 218.612 8.796 219.711 8.796H220.319V8.572C220.319 8.188 220.218 7.916 220.015 7.756C219.823 7.596 219.487 7.516 219.007 7.516C218.602 7.516 218.154 7.58 217.663 7.708C217.172 7.836 216.692 8.03333 216.223 8.3L215.503 6.428C215.77 6.236 216.111 6.06533 216.527 5.916C216.943 5.76667 217.38 5.65467 217.839 5.58C218.298 5.49467 218.73 5.452 219.135 5.452C220.447 5.452 221.418 5.73467 222.047 6.3C222.687 6.86533 223.007 7.756 223.007 8.972V13.5H220.351V12.38C220.212 12.7853 219.962 13.1053 219.599 13.34C219.236 13.564 218.794 13.676 218.271 13.676ZM218.911 11.82C219.306 11.82 219.636 11.692 219.903 11.436C220.18 11.18 220.319 10.844 220.319 10.428V10.14H219.711C219.082 10.14 218.618 10.2093 218.319 10.348C218.031 10.476 217.887 10.684 217.887 10.972C217.887 11.2173 217.972 11.42 218.143 11.58C218.324 11.74 218.58 11.82 218.911 11.82ZM216.351 4.588L218.127 1.308H220.495L222.271 4.588H220.543L219.311 2.78L218.079 4.588H216.351ZM224.629 13.5V5.628H227.397V6.7C227.674 6.29467 228.032 5.98533 228.469 5.772C228.906 5.55867 229.397 5.452 229.941 5.452C230.88 5.452 231.573 5.72933 232.021 6.284C232.48 6.83867 232.709 7.692 232.709 8.844V13.5H229.861V8.956C229.861 8.476 229.776 8.13467 229.605 7.932C229.445 7.72933 229.205 7.628 228.885 7.628C228.458 7.628 228.117 7.76667 227.861 8.044C227.605 8.31067 227.477 8.67333 227.477 9.132V13.5H224.629ZM242.846 13.5L237.71 2.22H240.846L244.078 9.724L247.31 2.22H250.334L245.182 13.5H242.846ZM250.705 4.268V1.692H253.697V4.268H250.705ZM250.785 13.5V5.628H253.633V13.5H250.785ZM259.573 13.676C258.613 13.676 257.781 13.5107 257.077 13.18C256.384 12.8387 255.85 12.3587 255.477 11.74C255.104 11.1213 254.917 10.3907 254.917 9.548C254.917 8.748 255.093 8.03867 255.445 7.42C255.808 6.80133 256.298 6.32133 256.917 5.98C257.546 5.628 258.261 5.452 259.061 5.452C259.85 5.452 260.533 5.61733 261.109 5.948C261.696 6.27867 262.144 6.75333 262.453 7.372C262.773 7.98 262.933 8.69467 262.933 9.516V10.14H257.637C257.733 10.652 257.946 11.02 258.277 11.244C258.608 11.468 259.066 11.58 259.653 11.58C260.058 11.58 260.48 11.5213 260.917 11.404C261.365 11.276 261.76 11.0947 262.101 10.86L262.805 12.732C262.4 13.02 261.904 13.2493 261.317 13.42C260.73 13.5907 260.149 13.676 259.573 13.676ZM259.189 7.292C258.762 7.292 258.41 7.42 258.133 7.676C257.866 7.932 257.696 8.30533 257.621 8.796H260.597C260.565 8.29467 260.426 7.92133 260.181 7.676C259.946 7.42 259.616 7.292 259.189 7.292ZM257.813 17.084V14.7H260.373V17.084H257.813ZM256.133 4.588L257.909 1.308H260.277L262.053 4.588H260.325L259.093 2.78L257.861 4.588H256.133ZM268.226 13.676C267.031 13.676 266.146 13.3987 265.57 12.844C264.994 12.2893 264.706 11.452 264.706 10.332V7.724H263.234V5.628H264.706V3.34H267.554V5.628H269.794V7.724H267.554V10.236C267.554 11.004 267.943 11.388 268.722 11.388C268.85 11.388 268.988 11.3773 269.138 11.356C269.298 11.324 269.474 11.2813 269.666 11.228L270.05 13.276C269.804 13.404 269.516 13.5 269.186 13.564C268.855 13.6387 268.535 13.676 268.226 13.676Z" fill="url(#paint0_linear_1399_9057)"/>
<defs>
<linearGradient id="paint0_linear_1399_9057" x1="-1.55329e-06" y1="19.5" x2="235.498" y2="-83.2329" gradientUnits="userSpaceOnUse">
<stop stop-color="#8CC63F"/>
<stop offset="1" stop-color="#197338"/>
</linearGradient>
</defs>
</svg>
