<svg xmlns="http://www.w3.org/2000/svg" width="24" height="24" viewBox="0 0 24 24">
                <g id="Group_1913" data-name="Group 1913" transform="translate(-27 -417)">
                  <rect id="Rectangle_1667" data-name="Rectangle 1667" width="24" height="24" transform="translate(27 417)" fill="#e8e8e8" opacity="0"></rect>
                  <g id="taxi" transform="translate(29.126 415.583)">
                    <g id="Group_1545" data-name="Group 1545" transform="translate(0 5.417)">
                      <g id="Group_1544" data-name="Group 1544" transform="translate(0 0)">
                        <path id="Path_738" data-name="Path 738" d="M18.358,49.1l-1.566-4.845-.006-.017a2.29,2.29,0,0,0-2.16-1.534H4.9a2.29,2.29,0,0,0-2.16,1.534L1.166,49.1A2.289,2.289,0,0,0,0,51.1v5.8a2.288,2.288,0,0,0,4.576,0v-.381H14.947v.381a2.288,2.288,0,0,0,4.576,0V51.1A2.29,2.29,0,0,0,18.358,49.1ZM4.179,44.738a.763.763,0,0,1,.718-.5h9.73a.763.763,0,0,1,.718.5l1.316,4.071H2.864ZM3.05,56.893a.763.763,0,0,1-1.525,0v-.512a2.278,2.278,0,0,0,.763.131H3.05Zm14.947,0a.763.763,0,0,1-1.525,0v-.381h.763A2.278,2.278,0,0,0,18,56.381Zm0-2.669a.763.763,0,0,1-.763.763H2.288a.763.763,0,0,1-.763-.763V51.1a.763.763,0,0,1,.763-.763H17.235A.763.763,0,0,1,18,51.1Z" transform="translate(0 -42.709)" fill="#008837"></path>
                      </g>
                    </g>
                    <g id="Group_1547" data-name="Group 1547" transform="translate(6.902 15.026)">
                      <g id="Group_1546" data-name="Group 1546">
                        <rect id="Rectangle_1541" data-name="Rectangle 1541" width="5.72" height="1.525" fill="#008837"></rect>
                      </g>
                    </g>
                    <g id="Group_1549" data-name="Group 1549" transform="translate(14.947 14.263)">
                      <g id="Group_1548" data-name="Group 1548">
                        <circle id="Ellipse_16" data-name="Ellipse 16" cx="0.763" cy="0.763" r="0.763" fill="#008837"></circle>
                      </g>
                    </g>
                    <g id="Group_1551" data-name="Group 1551" transform="translate(3.05 14.263)">
                      <g id="Group_1550" data-name="Group 1550">
                        <circle id="Ellipse_17" data-name="Ellipse 17" cx="0.763" cy="0.763" r="0.763" fill="#008837"></circle>
                      </g>
                    </g>
                  </g>
                </g>
              </svg>