<svg xmlns="http://www.w3.org/2000/svg" width="10.577" height="9.899" viewBox="0 0 10.577 9.899" class="icon">
                          <defs>
                              <style>
                                  .cls-1 {
                                      fill: #fe0000
                                  }
                              </style>
                          </defs>
                          <g id="chat" transform="translate(0 -10.793)">
                              <path id="Path_908" d="M9.322 15H1.254A1.3 1.3 0 0 0 0 16.334v4.756a1.3 1.3 0 0 0 1.254 1.334h1.284v2.25a.225.225 0 0 0 .135.21.2.2 0 0 0 .076.015.206.206 0 0 0 .157-.074l2.052-2.4h4.364a1.3 1.3 0 0 0 1.254-1.334v-4.757A1.3 1.3 0 0 0 9.322 15z" class="cls-1" data-name="Path 908" transform="translate(0 -4.207)"></path>
                          </g>
                      </svg>