<svg xmlns="http://www.w3.org/2000/svg" width="18" height="18" viewBox="0 0 18 18" fill="none">
                <path d="M15.3281 15.8906C15.6194 15.8906 15.8555 15.6545 15.8555 15.3633V1.65234C15.8555 1.36111 15.6194 1.125 15.3281 1.125H10.3374C9.98318 0.456574 9.28037 0 8.47266 0H6.89062C6.59939 0 6.36328 0.236109 6.36328 0.527344V1.125H3.72656C2.85423 1.125 2.14453 1.8347 2.14453 2.70703V16.418C2.14453 17.2903 2.85423 18 3.72656 18H15.3281C15.6194 18 15.8555 17.7639 15.8555 17.4727C15.8555 17.1814 15.6194 16.9453 15.3281 16.9453H14.8008V15.8906H15.3281ZM14.8008 14.8359H10.2983C10.4784 14.5254 10.582 14.1653 10.582 13.7812V12.7266H13.2188C13.51 12.7266 13.7461 12.4905 13.7461 12.1992C13.7461 11.908 13.51 11.6719 13.2188 11.6719H10.582V10.6172H13.2188C13.51 10.6172 13.7461 10.3811 13.7461 10.0898C13.7461 9.79861 13.51 9.5625 13.2188 9.5625H10.582V8.50781H13.2188C13.51 8.50781 13.7461 8.2717 13.7461 7.98047C13.7461 7.68923 13.51 7.45312 13.2188 7.45312H10.582V6.39844H13.2188C13.51 6.39844 13.7461 6.16233 13.7461 5.87109V3.76172C13.7461 3.47048 13.51 3.23438 13.2188 3.23438H10.582V2.17969H14.8008V14.8359ZM10.582 4.28906H12.6914V5.34375H10.582V4.28906ZM7.41797 1.05469H8.47266C9.13873 1.05469 9.52734 1.62759 9.52734 2.10938V11.9557C9.21681 11.7756 8.85674 11.6719 8.47266 11.6719H7.41797V1.05469ZM3.72656 2.17969H6.36328V12.1992C6.36328 12.4905 6.59939 12.7266 6.89062 12.7266H8.47266C9.05421 12.7266 9.52734 13.1997 9.52734 13.7812C9.52734 14.3628 9.05421 14.8359 8.47266 14.8359H3.72656C3.54171 14.8359 3.36428 14.8681 3.19922 14.9266V2.70703C3.19922 2.41625 3.43579 2.17969 3.72656 2.17969ZM13.7461 16.9453H3.72656C3.43579 16.9453 3.19922 16.7087 3.19922 16.418C3.19922 16.1272 3.43579 15.8906 3.72656 15.8906H13.7461V16.9453Z" fill="#008837"></path>
              </svg>