<svg xmlns="http://www.w3.org/2000/svg" width="24" height="24" viewBox="0 0 24 24">
                <g id="Group_1907" data-name="Group 1907" transform="translate(-27 -258)">
                  <rect id="Rectangle_1661" data-name="Rectangle 1661" width="24" height="24" transform="translate(27 258)" fill="#e8e8e8" opacity="0"></rect>
                  <path id="masks" d="M13.511,10.659a11.829,11.829,0,0,0,1.1-5.125V1.576l0-1.244L13.5.888A15.3,15.3,0,0,1,7.3,2.016,15.3,15.3,0,0,1,1.112.889L0,.333v5.2a11.749,11.749,0,0,0,1.1,5.1,10.768,10.768,0,0,0,2.418,3.271,10.991,10.991,0,0,0,3.541,2.237l.245.084.246-.082a10.817,10.817,0,0,0,3.546-2.215,10.676,10.676,0,0,0,2.419-3.27Zm-3.416,2.1a9.843,9.843,0,0,1-2.789,1.832,10.021,10.021,0,0,1-2.793-1.853,9.474,9.474,0,0,1-2.976-7.2V2.7A18.6,18.6,0,0,0,7.3,3.554,18.6,18.6,0,0,0,13.069,2.7V5.535A9.472,9.472,0,0,1,10.1,12.756Zm-.844-3.32L10.4,10.456a4.415,4.415,0,0,1-6.35,0L5.2,9.436l0,0a2.884,2.884,0,0,0,4.056,0ZM4.718,6.727a1.078,1.078,0,0,0-.724.285L2.842,5.993a2.591,2.591,0,0,1,3.751,0L5.442,7.012l.009.01a1.073,1.073,0,0,0-.733-.295Zm7.046-.734L10.613,7.012l.009.01a1.061,1.061,0,0,0-1.457-.01L8.013,5.993a2.591,2.591,0,0,1,3.751,0Zm3.454,4.593a12.542,12.542,0,0,0,.48-1.463,2.58,2.58,0,0,1,1.14.7l-1.151,1.019.009.01A1.073,1.073,0,0,0,15.218,10.586ZM19.681,4.1V9.3a11.829,11.829,0,0,1-1.1,5.125,10.673,10.673,0,0,1-2.419,3.27,10.817,10.817,0,0,1-3.546,2.215l-.246.082-.245-.084a11.033,11.033,0,0,1-3.751-2.436,11.624,11.624,0,0,0,1.478-.732,10.045,10.045,0,0,0,2.526,1.614,9.84,9.84,0,0,0,2.788-1.832A9.471,9.471,0,0,0,18.144,9.3V6.465a16.148,16.148,0,0,1-2.068.523c.045-.465.069-.95.069-1.454V5.406a11.425,11.425,0,0,0,2.426-.751Zm-4.2,10.192-1.151,1.019,0,0a2.885,2.885,0,0,0-1.635-.806A12.358,12.358,0,0,0,13.782,13.2a4.4,4.4,0,0,1,1.695,1.088Zm0,0" transform="translate(29 259.668)" fill="#008837"></path>
                </g>
              </svg>