<svg xmlns="http://www.w3.org/2000/svg" width="24" height="24" viewBox="0 0 24 24">
                <g id="Group_1922" data-name="Group 1922" transform="translate(-202 -655)">
                  <rect id="Rectangle_1677" data-name="Rectangle 1677" width="24" height="24" transform="translate(202 655)" fill="#e8e8e8" opacity="0"></rect>
                  <path id="magazine" d="M12.951,2.969V2.6a2.6,2.6,0,0,0-2.6-2.6H8.5V1.484H2.227A2.229,2.229,0,0,0,0,3.711V16.773A2.229,2.229,0,0,0,2.227,19H15.92V2.969Zm1.484,1.484V14.547H12.7a2.577,2.577,0,0,0,.247-.965h0V4.453ZM9.982,1.484h.371A1.114,1.114,0,0,1,11.467,2.6v8.489a2.581,2.581,0,0,0-1.113-.251H9.982ZM2.227,2.969H8.5V12.32h1.855a1.113,1.113,0,0,1,0,2.227H2.227a2.214,2.214,0,0,0-.742.128V3.711a.743.743,0,0,1,.742-.742Zm0,14.547a.742.742,0,0,1,0-1.484H14.436v1.484Zm0,0" transform="translate(206 658)" fill="#008837"></path>
                </g>
              </svg>