<svg xmlns="http://www.w3.org/2000/svg" width="24" height="24" viewBox="0 0 24 24">
                <g id="Group_1910" data-name="Group 1910" transform="translate(-202 -311)">
                  <rect id="Rectangle_1664" data-name="Rectangle 1664" width="24" height="24" transform="translate(202 311)" fill="#e8e8e8" opacity="0"></rect>
                  <path id="couple" d="M18.094,7.928v5.1h1.594V20.4H18.094V14.621H16.5V7.928a2.393,2.393,0,0,1,2.39-2.39h3.187a2.381,2.381,0,0,1,.73.114,3.791,3.791,0,0,0-1.66,1.479H18.89A.8.8,0,0,0,18.094,7.928Zm17.489,7.705L34.267,7.421l0-.024a2.394,2.394,0,0,0-2.347-1.939H29.768a2.38,2.38,0,0,0-.81.142,3.79,3.79,0,0,1,1.729,1.452h1.23a.8.8,0,0,1,.78.636l1.174,7.331H26.061v1.594h2.39V20.4h1.594V16.612h1.594V20.4h1.594V16.612h2.35ZM18.094,2.39a2.39,2.39,0,1,1,2.39,2.39A2.393,2.393,0,0,1,18.094,2.39Zm1.594,0a.8.8,0,1,0,.8-.8A.8.8,0,0,0,19.687,2.39ZM21.281,20.4h1.594v-7.37H21.281ZM28.451,2.39a2.39,2.39,0,1,1,2.39,2.39A2.393,2.393,0,0,1,28.451,2.39Zm1.594,0a.8.8,0,1,0,.8-.8A.8.8,0,0,0,30.045,2.39Zm-4.1,11.067-.606-.35c-.531-.309-3.179-1.944-3.179-3.833a2.42,2.42,0,0,1,.667-1.721,2.258,2.258,0,0,1,1.623-.662,2.4,2.4,0,0,1,1.494.472,2.4,2.4,0,0,1,1.494-.472,2.258,2.258,0,0,1,1.623.662,2.42,2.42,0,0,1,.667,1.721c0,1.889-2.648,3.524-3.178,3.833Zm0-1.845c1.088-.676,2.191-1.716,2.191-2.338a.693.693,0,0,0-.7-.789c-.7,0-1.5,1.474-1.5,1.474s-.753-1.474-1.49-1.474a.693.693,0,0,0-.7.789C23.751,9.9,24.853,10.937,25.942,11.613Z" transform="translate(187.858 313)" fill="#008837"></path>
                </g>
              </svg>