<svg xmlns="http://www.w3.org/2000/svg" width="24" height="24" viewBox="0 0 24 24">
                <g id="Group_1917" data-name="Group 1917" transform="translate(-27 -523)">
                  <rect id="Rectangle_1672" data-name="Rectangle 1672" width="24" height="24" transform="translate(27 523)" fill="#e8e8e8" opacity="0"></rect>
                  <path id="fan" d="M1.445,15.6V0h.722A16.278,16.278,0,0,1,13.712,4.782a16.272,16.272,0,0,1,3.5,5.189,16.225,16.225,0,0,1,1.283,6.355v.722H2.889v1.445H2.167A2.17,2.17,0,0,1,0,16.327V15.6ZM2.889,8.957q.229.023.454.059L5.251,1.767a14.829,14.829,0,0,0-2.362-.3ZM6.648,2.135,4.741,9.383q.217.081.427.175L8.86,3.037a14.778,14.778,0,0,0-2.211-.9Zm8.756,7.4L8.912,13.273q.111.244.2.5l7.254-1.89A14.786,14.786,0,0,0,15.4,9.531Zm-2.221-3.2-5.3,5.3q.157.191.3.394l6.492-3.742a14.983,14.983,0,0,0-1.5-1.948ZM6.865,10.607l5.3-5.3a14.961,14.961,0,0,0-2.046-1.56L6.425,10.272q.226.159.44.335Zm9.87,2.671-7.254,1.89q.034.216.056.437h7.495a14.843,14.843,0,0,0-.3-2.326ZM8.083,15.6a5.971,5.971,0,0,0-5.194-5.194V15.6Zm0,0" transform="translate(29.547 526)" fill="#008837"></path>
                </g>
              </svg>