<svg xmlns="http://www.w3.org/2000/svg" width="24" height="24" viewBox="0 0 24 24">
                <g id="Group_1915" data-name="Group 1915" transform="translate(-27 -470)">
                  <rect id="Rectangle_1669" data-name="Rectangle 1669" width="24" height="24" transform="translate(27 470)" fill="#e8e8e8" opacity="0"></rect>
                  <g id="smile" transform="translate(30.426 473)">
                    <g id="Group_1553" data-name="Group 1553">
                      <g id="Group_1552" data-name="Group 1552">
                        <path id="Path_739" data-name="Path 739" d="M15,2.574A8.787,8.787,0,0,0,2.574,15,8.787,8.787,0,0,0,15,2.574ZM8.787,16.2A7.414,7.414,0,1,1,16.2,8.787,7.422,7.422,0,0,1,8.787,16.2Z" fill="#008837"></path>
                      </g>
                    </g>
                    <g id="Group_1555" data-name="Group 1555" transform="translate(3.613 9.782)">
                      <g id="Group_1554" data-name="Group 1554">
                        <path id="Path_740" data-name="Path 740" d="M114.314,285.032a4.911,4.911,0,0,1-.859,1.455,3.714,3.714,0,0,1-2.937,1.367,3.952,3.952,0,0,1-3.032-1.383,5.285,5.285,0,0,1-.938-1.465l-1.286.48a6.577,6.577,0,0,0,1.167,1.863,5.347,5.347,0,0,0,4.089,1.879,5.1,5.1,0,0,0,4.019-1.893,6.214,6.214,0,0,0,1.082-1.877Z" transform="translate(-105.262 -285.006)" fill="#008837"></path>
                      </g>
                    </g>
                    <g id="Group_1557" data-name="Group 1557" transform="translate(4.668 5.084)">
                      <g id="Group_1556" data-name="Group 1556">
                        <circle id="Ellipse_18" data-name="Ellipse 18" cx="1.098" cy="1.098" r="1.098" fill="#008837"></circle>
                      </g>
                    </g>
                    <g id="Group_1559" data-name="Group 1559" transform="translate(10.709 5.084)">
                      <g id="Group_1558" data-name="Group 1558">
                        <circle id="Ellipse_19" data-name="Ellipse 19" cx="1.098" cy="1.098" r="1.098" fill="#008837"></circle>
                      </g>
                    </g>
                  </g>
                </g>
              </svg>