<svg xmlns="http://www.w3.org/2000/svg" width="24" height="24" viewBox="0 0 24 24">
                <g id="Group_1905" data-name="Group 1905" transform="translate(-27 -205)">
                  <rect id="Rectangle_1659" data-name="Rectangle 1659" width="24" height="24" transform="translate(27 205)" fill="#e8e8e8" opacity="0"></rect>
                  <g id="auction" transform="translate(28.23 207)">
                    <g id="Group_1536" data-name="Group 1536" transform="translate(0.436)">
                      <g id="Group_1535" data-name="Group 1535">
                        <path id="Path_733" data-name="Path 733" d="M12.736,12.323l-1.306.836.854,1.336.871-.557,6.636-4.244.884-.565-.854-1.336-1.3.831A14.613,14.613,0,0,1,14.4,2.162l1.291-.826L14.838,0l-.9.577L7.335,4.8l-.889.568L7.3,6.7l1.3-.83a14.917,14.917,0,0,1,2.116,2.343L.436,14.758,1.288,16.1,11.569,9.551A13.515,13.515,0,0,1,12.736,12.323ZM9.98,4.989l3.044-1.947A16.13,16.13,0,0,0,17.14,9.506l-1.224.783-1.8,1.148A15.414,15.414,0,0,0,9.98,4.989Z" transform="translate(-0.436)" fill="#008837"></path>
                        <path id="Path_734" data-name="Path 734" d="M230.46,401.916h-6.74a2.381,2.381,0,0,0-2.379,2.379v1.982h11.5v-1.982A2.381,2.381,0,0,0,230.46,401.916Zm.793,2.775h-8.325v-.4a.794.794,0,0,1,.793-.793h6.74a.794.794,0,0,1,.793.793Z" transform="translate(-212.591 -385.994)" fill="#008837"></path>
                      </g>
                    </g>
                  </g>
                </g>
              </svg>