<svg xmlns="http://www.w3.org/2000/svg" width="18" height="18" viewBox="0 0 18 18" fill="none">
                <path d="M17.9946 6.04092C17.9127 1.95158 12.9225 -1.06216 8.99778 2.36965C5.07568 -1.05994 0.0829311 1.94957 0.00101702 6.04092C-0.0290064 7.53987 0.606232 8.98307 1.83797 10.2145C1.84131 10.218 4.33821 12.7012 8.62576 16.9655C8.83149 17.1701 9.164 17.1702 9.36981 16.9655L16.1576 10.2145C17.3893 8.98311 18.0245 7.53987 17.9946 6.04092ZM8.99778 15.8478L3.20628 10.0877H5.0593C5.24457 10.0877 5.41628 9.99051 5.51158 9.83171L5.91644 9.15713L7.42746 11.531C7.64968 11.8802 8.17147 11.8486 8.34915 11.4736L10.4345 7.0724L11.9091 9.8104C12.0011 9.98119 12.1795 10.0878 12.3736 10.0878H14.7892L8.99778 15.8478ZM15.8096 9.03303H12.6887L10.8688 5.65413C10.6648 5.27535 10.1131 5.28709 9.9277 5.67838L7.80469 10.1591L6.34827 7.87104C6.13592 7.53727 5.65084 7.54986 5.45097 7.88282L4.76068 9.03306H2.18608C1.42418 8.11693 1.035 7.0995 1.05574 6.06204C1.12159 2.77384 5.31309 0.153649 8.62481 3.46452C8.83062 3.67029 9.16481 3.67047 9.37076 3.46452C13.5991 -0.762874 19.4122 4.70195 15.8096 9.03303Z" fill="#008837"></path>
              </svg>