<svg xmlns="http://www.w3.org/2000/svg" width="24" height="24" viewBox="0 0 16 16" fill="none">
                <path fill-rule="evenodd" clip-rule="evenodd" d="M8 0C12.4183 0 16 3.58172 16 8C16 11.6173 13.599 14.6733 10.304 15.6626C10.304 14.1363 10.304 12.6099 10.304 11.0835H5.69603C5.69603 12.6099 5.69603 14.1363 5.69603 15.6626C2.40098 14.6733 0 11.6173 0 8C0 3.58172 3.58172 0 8 0ZM11.4552 14.1641C13.6098 12.9539 15.0658 10.6472 15.0658 8C15.0658 4.09766 11.9023 0.934188 8 0.934188C4.09766 0.934188 0.934188 4.09766 0.934188 8C0.934188 10.6472 2.39017 12.9539 4.54481 14.1641V10.0682H5.69603V8.09397H3.34656L1.71636 6.46377L2.53321 5.64692L3.78225 6.89595H6.82298V10.0682H9.17702V6.89595H12.2178L13.4668 5.64692L14.2836 6.46377L12.6534 8.09397H10.304V10.0682H11.4552V14.1641ZM10.0827 2.72196H9.08457L9.17301 3.05013H6.82699L6.91543 2.72196H5.91726L5.21048 4.60891H6.40691L6.54141 4.10983H9.45859L9.59309 4.60891H10.7895L10.0827 2.72196ZM12.3255 4.50634L11.5486 5.28325C9.18287 5.28325 6.81713 5.28325 4.45138 5.28325L3.67447 4.50634L2.93332 5.24749L4.01591 6.33008C6.67197 6.33008 9.32803 6.33008 11.9841 6.33008L13.0667 5.24749L12.3255 4.50634Z" fill="#008837"></path>
                <path fill-rule="evenodd" clip-rule="evenodd" d="M6.62406 14.3483V15.6925H6.27462V15.1279H6.17005V15.6925H5.82031V14.3483H6.17005V14.8289H6.27462V14.3483H6.62406ZM7.36803 14.3483L7.56811 15.6925H7.21017L7.19289 15.4508H7.06732L7.04664 15.6925H6.68472L6.86242 14.3483H7.36803ZM7.18296 15.2127C7.1651 15.0605 7.14753 14.8723 7.12968 14.6487C7.09425 14.9057 7.07214 15.0936 7.06335 15.2127H7.18296ZM7.08575 14.1182L7.19769 14.291H7.06817L6.85901 14.1182H7.08575ZM8.83017 14.3483V15.6925H8.5238L8.34185 15.0815V15.6925H8.04964V14.3483H8.34185L8.53797 14.9537V14.3483H8.83017ZM9.7691 15.1353C9.7691 15.2705 9.76599 15.366 9.75975 15.4221C9.75324 15.4785 9.73339 15.5298 9.69995 15.5763C9.66651 15.6228 9.62116 15.6585 9.5642 15.6834C9.50724 15.7084 9.44064 15.7208 9.36496 15.7208C9.29298 15.7208 9.22836 15.7089 9.1711 15.6854C9.11357 15.6619 9.06766 15.6268 9.03281 15.5797C8.99794 15.5327 8.97726 15.4814 8.97045 15.4261C8.96392 15.3705 8.96053 15.2736 8.96053 15.1353V14.9055C8.96053 14.7703 8.96364 14.6748 8.97017 14.6184C8.97641 14.5623 8.99623 14.511 9.02997 14.4645C9.06341 14.418 9.10846 14.3823 9.16572 14.3573C9.22268 14.3324 9.28901 14.3199 9.36496 14.3199C9.43695 14.3199 9.50157 14.3318 9.55882 14.3554C9.61607 14.3789 9.66226 14.414 9.69711 14.4611C9.73198 14.5081 9.75267 14.5594 9.75919 14.6147C9.76599 14.6702 9.7691 14.7669 9.7691 14.9055V15.1353ZM9.41966 14.6938C9.41966 14.6311 9.41627 14.5912 9.40918 14.5736C9.40237 14.5563 9.3882 14.5475 9.36667 14.5475C9.34823 14.5475 9.33436 14.5546 9.32471 14.5688C9.31479 14.5827 9.30998 14.6243 9.30998 14.6938V15.3212C9.30998 15.3995 9.31338 15.4476 9.31961 15.4658C9.32585 15.4842 9.34087 15.4933 9.36411 15.4933C9.38792 15.4933 9.40293 15.4828 9.40974 15.4618C9.41627 15.4406 9.41966 15.3907 9.41966 15.3113V14.6938ZM9.36893 14.1981L9.30346 14.291H9.1456L9.29014 14.0901H9.44885L9.58403 14.291H9.43128L9.36893 14.1981ZM9.45792 15.7945V15.9722H9.272V15.7945H9.45792ZM10.2492 14.3483V15.6925H9.89947V14.3483H10.2492Z" fill="#008837"></path>
              </svg>