<svg
                xmlns="http://www.w3.org/2000/svg"
                width="20.836"
                height="19.863"
                viewBox="0 0 20.836 19.863"
              >
                <g id="home" transform="translate(0 -11.96)">
                  <g
                    id="Group_1533"
                    data-name="Group 1533"
                    transform="translate(0 11.96)"
                  >
                    <path
                      id="Path_723"
                      data-name="Path 723"
                      d="M10.418,11.96,0,21.007l1.066,1.228.975-.847v7.995a2.442,2.442,0,0,0,2.44,2.44H9.036v-7.97h2.846v7.97h4.473a2.442,2.442,0,0,0,2.44-2.44V21.388l.975.847,1.066-1.228Zm6.75,17.423a.814.814,0,0,1-.813.813H13.508v-7.97h-6.1V30.2H4.481a.814.814,0,0,1-.813-.813V19.976l6.75-5.862,6.75,5.862Z"
                      transform="translate(0 -11.96)"
                      fill="#008837"
                    ></path>
                  </g>
                </g>
              </svg>