<svg width="18" height="18" viewBox="0 0 18 18" fill="none" xmlns="http://www.w3.org/2000/svg">
<path fill-rule="evenodd" clip-rule="evenodd" d="M18 8.1C18 12.5735 13.9706 16.2 9 16.2C8.38356 16.2 7.7816 16.1442 7.2 16.038C7.14705 16.057 7.10033 16.0739 7.05398 16.0916C6.70639 16.2249 6.37935 16.4118 3.60009 17.9999L3.6 18V14.5806C1.414 13.1028 0 10.75 0 8.1C0 3.62649 4.02944 0 9 0C13.9706 0 18 3.62649 18 8.1ZM4.10755 9.34115C4.31892 9.34115 4.52603 9.34068 4.73015 9.34021H4.73058C5.13 9.3393 5.51802 9.33841 5.90422 9.34115C6.23127 9.34529 6.40928 9.4819 6.4424 9.74271C6.47966 10.0698 6.28923 10.2892 5.9332 10.2933C5.43035 10.2995 4.92982 10.2987 4.42813 10.298L4.42667 10.298C4.25976 10.2977 4.09271 10.2974 3.9254 10.2974C3.86966 10.2974 3.81427 10.2981 3.75902 10.2988C3.62139 10.3005 3.48466 10.3022 3.34583 10.2933C3.10572 10.2809 2.86975 10.2312 2.75384 9.98282C2.63792 9.73443 2.72072 9.51088 2.87803 9.30803C3.51556 8.49663 4.15723 7.68109 4.7989 6.86969C4.83616 6.82001 4.87341 6.77033 4.91067 6.7248C4.88018 6.67295 4.8407 6.67727 4.80216 6.68149H4.80215C4.78838 6.68299 4.77472 6.68449 4.76164 6.6834C4.53809 6.68133 4.31351 6.68133 4.08892 6.68133H4.08877C3.86423 6.68133 3.6397 6.68133 3.4162 6.67926C3.31271 6.67926 3.20922 6.66684 3.10986 6.64614C2.87389 6.59232 2.729 6.35635 2.78282 6.12452C2.82007 5.96721 2.94427 5.83888 3.10158 5.80162C3.20094 5.77678 3.30443 5.76436 3.40793 5.76436C4.14481 5.76022 4.88583 5.76022 5.62272 5.76436C5.75519 5.76022 5.88353 5.77678 6.01186 5.8099C6.29337 5.90512 6.41342 6.16592 6.30164 6.43915C6.20229 6.67512 6.04498 6.87797 5.88766 7.08082C5.34535 7.77217 4.80304 8.45937 4.26072 9.14244C4.21519 9.19626 4.17379 9.25007 4.10755 9.34115ZM9.28347 6.88209C9.11374 6.91521 9.01025 7.03527 8.91089 7.1636C8.39342 6.71236 7.82212 6.68338 7.25911 7.01871C6.58018 7.41613 6.32766 8.06194 6.41459 8.81953C6.49739 9.51916 6.79959 10.0946 7.53648 10.3347C7.99599 10.4837 8.42239 10.4299 8.79912 10.1236C8.89847 10.0449 8.92745 10.0615 8.99783 10.1484C9.13444 10.3264 9.37041 10.3885 9.5774 10.3099C9.78025 10.2478 9.921 10.0573 9.921 9.84207C9.92928 9.0141 9.93342 8.18614 9.921 7.35817C9.91686 7.02699 9.61052 6.81586 9.28347 6.88209ZM7.61927 9.17555C7.51164 9.03066 7.45368 8.85679 7.4454 8.67464C7.44126 8.09092 7.76003 7.73904 8.2154 7.76802C8.40998 7.77216 8.59213 7.86737 8.70804 8.02882C8.93987 8.34345 8.93987 8.86093 8.70804 9.17555C8.66664 9.22937 8.6211 9.27491 8.57143 9.31217C8.26922 9.53572 7.84282 9.47362 7.61927 9.17555ZM13.4398 6.81172C12.4463 6.8407 11.7467 7.63554 11.7798 8.69948C11.7632 9.73443 12.6202 10.5169 13.7006 10.4092C14.6901 10.3099 15.3317 9.56884 15.2986 8.52146C15.2655 7.48651 14.4955 6.7786 13.4398 6.81172ZM12.9969 9.1797C12.8727 9.00996 12.8106 8.80711 12.8189 8.60012C12.8189 8.08264 13.1335 7.74318 13.5806 7.76802C13.7752 7.77216 13.9573 7.87151 14.0732 8.02882C14.3092 8.34345 14.3092 8.87335 14.0691 9.18797C14.0318 9.22937 13.9946 9.27077 13.949 9.30389C13.651 9.53572 13.2246 9.47776 12.9969 9.1797ZM11.4164 8.51732C11.4159 8.30343 11.4155 8.08954 11.4155 7.87565C11.4155 7.66053 11.4159 7.44496 11.4164 7.22923C11.4173 6.79731 11.4182 6.36477 11.4155 5.93408C11.4155 5.60289 11.2043 5.3959 10.8897 5.40004C10.5834 5.40004 10.3805 5.60703 10.3764 5.9258C10.3736 6.05536 10.3745 6.18308 10.3755 6.31142C10.3759 6.37581 10.3764 6.44036 10.3764 6.50537V9.79653C10.3764 10.0573 10.5337 10.2767 10.7407 10.3306C10.7904 10.343 10.8442 10.3471 10.8939 10.3471C11.1878 10.3388 11.4196 10.0946 11.4155 9.80067C11.4182 9.37289 11.4173 8.94511 11.4164 8.51732Z" fill="white"/>
</svg>
