<svg xmlns="http://www.w3.org/2000/svg" width="24" height="24" viewBox="0 0 24 24">
                <g id="Group_1921" data-name="Group 1921" transform="translate(-27 -655)">
                  <rect id="Rectangle_1676" data-name="Rectangle 1676" width="24" height="24" transform="translate(27 655)" fill="#e8e8e8" opacity="0"></rect>
                  <g id="pie-chart" transform="translate(29.429 658)">
                    <g id="Group_1565" data-name="Group 1565">
                      <path id="Path_743" data-name="Path 743" d="M15.939,2.735a9.337,9.337,0,0,0-13.2,13.2,9.337,9.337,0,0,0,13.2-13.2ZM17.192,8.73l-3.715,3.715-1.033-1.033L16.86,7A7.825,7.825,0,0,1,17.192,8.73Zm-.949-3.18L11.412,10.38,10.354,9.323l5.029-5.029A7.91,7.91,0,0,1,16.243,5.549ZM10.066,1.493a7.826,7.826,0,0,1,1.6.316L10.066,3.4Zm0,3.974L13.11,2.423a7.909,7.909,0,0,1,1.239.841L10.066,7.547ZM9.337,17.215A7.878,7.878,0,0,1,8.607,1.493V9.639L14.365,15.4A7.842,7.842,0,0,1,9.337,17.215Zm6.06-2.85-.889-.889,2.544-2.544A7.855,7.855,0,0,1,15.4,14.365Z" fill="#008837"></path>
                    </g>
                  </g>
                </g>
              </svg>