<svg xmlns="http://www.w3.org/2000/svg" width="24" height="24" viewBox="0 0 24 24">
                <g id="Group_1914" data-name="Group 1914" transform="translate(-202 -417)">
                  <rect id="Rectangle_1668" data-name="Rectangle 1668" width="24" height="24" transform="translate(202 417)" fill="#e8e8e8" opacity="0"></rect>
                  <path id="clover" d="M0,17.762l3.994-3.993a3.617,3.617,0,0,1-1.29.35l-.1,0a2.609,2.609,0,0,1-1.815-.78A2.553,2.553,0,0,1,.006,11.5,2.661,2.661,0,0,1,.746,9.592l.024-.023A2.75,2.75,0,0,1,.006,7.606,2.553,2.553,0,0,1,.791,5.769a2.876,2.876,0,0,1,1.838-.777c.477-.029,1.362.111,3.6,1.537C4.878,4.394,4.683,3.514,4.663,3.03a2.591,2.591,0,0,1,.778-1.912A2.553,2.553,0,0,1,7.278.332h.005a2.708,2.708,0,0,1,1.94.757l.008.008.006-.007A2.7,2.7,0,0,1,11.171.332h.005a2.553,2.553,0,0,1,1.837.785,2.875,2.875,0,0,1,.777,1.838c.029.478-.111,1.362-1.537,3.6,2.134-1.346,3.014-1.541,3.5-1.561a2.59,2.59,0,0,1,1.912.778A2.553,2.553,0,0,1,18.45,7.6a2.661,2.661,0,0,1-.741,1.911l-.024.023A2.75,2.75,0,0,1,18.45,11.5a2.553,2.553,0,0,1-.785,1.838,2.875,2.875,0,0,1-1.838.777c-.033,0-.069,0-.107,0-.5,0-1.412-.215-3.488-1.54,1.347,2.134,1.541,3.014,1.561,3.5a2.591,2.591,0,0,1-.778,1.912,2.553,2.553,0,0,1-1.837.785h-.005a2.662,2.662,0,0,1-1.907-.741l-.023-.024a2.748,2.748,0,0,1-1.957.765H7.28a2.553,2.553,0,0,1-1.838-.785,2.876,2.876,0,0,1-.777-1.838,2.938,2.938,0,0,1,.287-1.3L1.018,18.781ZM2.717,6.43A1.439,1.439,0,0,0,1.8,6.8a1.114,1.114,0,0,0-.349.807,1.32,1.32,0,0,0,.352.951,1.1,1.1,0,0,0,.8.31H4.219V10.31H2.579a1.118,1.118,0,0,0-.813.3,1.222,1.222,0,0,0-.319.89,1.114,1.114,0,0,0,.349.807,1.188,1.188,0,0,0,.848.371c.2-.008,1.045-.164,3.533-1.824C6.89,10.38,7.554,9.9,8.034,9.549c-.491-.368-1.175-.867-1.905-1.36C3.581,6.471,2.84,6.422,2.717,6.43Zm9.635-3.386a1.438,1.438,0,0,0-.372-.922,1.113,1.113,0,0,0-.807-.349h0a1.256,1.256,0,0,0-.914.336,1.122,1.122,0,0,0-.31.818v1.62H8.506V2.908a1.1,1.1,0,0,0-.3-.8,1.284,1.284,0,0,0-.921-.334h0a1.114,1.114,0,0,0-.807.349A1.187,1.187,0,0,0,6.1,2.97c.008.2.164,1.045,1.824,3.533.476.713.953,1.377,1.306,1.858.366-.489.864-1.17,1.355-1.9,1.722-2.553,1.772-3.3,1.764-3.418Zm3.386,9.635a1.438,1.438,0,0,0,.922-.372,1.114,1.114,0,0,0,.349-.807,1.322,1.322,0,0,0-.352-.951,1.1,1.1,0,0,0-.8-.31H14.234V8.8h1.642a1.119,1.119,0,0,0,.814-.3,1.222,1.222,0,0,0,.319-.89A1.113,1.113,0,0,0,16.66,6.8a1.191,1.191,0,0,0-.848-.371c-.2.008-1.045.164-3.533,1.824-.713.476-1.377.953-1.858,1.306.491.368,1.175.867,1.905,1.36,2.548,1.718,3.289,1.768,3.412,1.76ZM6.1,16.064a1.439,1.439,0,0,0,.372.922,1.114,1.114,0,0,0,.807.349h0a1.32,1.32,0,0,0,.947-.352,1.1,1.1,0,0,0,.31-.8v-1.62H9.983V16.2a1.119,1.119,0,0,0,.3.816,1.221,1.221,0,0,0,.888.319h0a1.114,1.114,0,0,0,.807-.349,1.187,1.187,0,0,0,.371-.848c-.008-.2-.164-1.045-1.824-3.533-.476-.713-.953-1.377-1.306-1.858-.366.489-.864,1.17-1.355,1.9C6.145,15.2,6.1,15.941,6.1,16.064Zm0,0" transform="translate(204.796 419.668)" fill="#008837"></path>
                </g>
              </svg>