<svg class="icon-flash" xmlns="http://www.w3.org/2000/svg" width="8.145" height="14.373" viewBox="0 0 8.145 14.373">
            <defs>
                <style>
                    .cls-11 { fill: #008837 }
                </style>
            </defs>
            <g id="flash" transform="translate(-110.933)">
                <g id="Group_2311" data-name="Group 2311" transform="translate(110.933)">
                    <path id="Path_1128" d="M119.055 4.929a.239.239 0 0 0-.217-.138H116l2.8-4.423a.24.24 0 0 0-.2-.368h-3.833a.24.24 0 0 0-.214.132l-3.593 7.186a.24.24 0 0 0 .214.347h2.463l-2.684 6.375a.24.24 0 0 0 .4.247l7.666-9.1a.24.24 0 0 0 .036-.258z" class="cls-11" data-name="Path 1128" transform="translate(-110.933)"></path>
                </g>
            </g>
        </svg>