<svg xmlns="http://www.w3.org/2000/svg" width="24" height="24" viewBox="0 0 24 24">
                <g id="Group_1909" data-name="Group 1909" transform="translate(-27 -311)">
                  <rect id="Rectangle_1663" data-name="Rectangle 1663" width="24" height="24" transform="translate(27 311)" fill="#e8e8e8" opacity="0"></rect>
                  <path id="bubble-speak" d="M7.591,7.534h5.17V9.011H7.591Zm0-1.477h7.386V4.58H7.591Zm9.484,7.586.71,1.131-1.337,0h-.014a4.994,4.994,0,0,1-2.8-.934,4.775,4.775,0,0,1-2.055,2.947,8.059,8.059,0,0,1-4.428,1.126,11.389,11.389,0,0,1-1.39-.078,4,4,0,0,1-2.7,1.076H1.624L2.4,17.765a4.37,4.37,0,0,0,.4-.923A4.985,4.985,0,0,1,.5,12.373a5.433,5.433,0,0,1,.84-3.051A4.939,4.939,0,0,1,3.21,7.668a8.312,8.312,0,0,1-.05-.921,6.945,6.945,0,0,1,.656-3.074A5.717,5.717,0,0,1,5.629,1.535,9.628,9.628,0,0,1,11.284,0a9.628,9.628,0,0,1,5.655,1.535,5.718,5.718,0,0,1,1.814,2.139,6.945,6.945,0,0,1,.655,3.074,6.051,6.051,0,0,1-2.91,5.5,6.358,6.358,0,0,0,.576,1.392ZM12.2,13.456c-.29.016-.6.024-.92.024A9.657,9.657,0,0,1,5.63,11.953,5.7,5.7,0,0,1,3.815,9.82a5.919,5.919,0,0,1-.267-.639,3.559,3.559,0,0,0-1.571,3.192,3.536,3.536,0,0,0,2.012,3.443l.52.256-.125.566c-.037.167-.078.324-.12.471a2.443,2.443,0,0,0,.665-.544l.272-.316.411.07a9.16,9.16,0,0,0,1.536.115,6.617,6.617,0,0,0,3.616-.882,3.307,3.307,0,0,0,1.44-2.1Zm5.728-6.708c0-4.586-4.165-5.27-6.647-5.27s-6.647.685-6.647,5.27S8.8,12,11.284,12a11.721,11.721,0,0,0,1.951-.139l.411-.07.272.316a3.373,3.373,0,0,0,1.28.927,9.314,9.314,0,0,1-.279-1l-.125-.566.52-.256a4.592,4.592,0,0,0,2.618-4.47Zm0,0" transform="translate(29.263 314)" fill="#008837"></path>
                </g>
              </svg>