<svg xmlns="http://www.w3.org/2000/svg" width="24" height="24" viewBox="0 0 24 24">
                <g id="Group_1920" data-name="Group 1920" transform="translate(-202 -602)">
                  <rect id="Rectangle_1675" data-name="Rectangle 1675" width="24" height="24" transform="translate(202 602)" fill="#e8e8e8" opacity="0"></rect>
                  <g id="picture" transform="translate(205.163 570.199)">
                    <g id="Group_1562" data-name="Group 1562" transform="translate(0 35.801)">
                      <g id="Group_1561" data-name="Group 1561" transform="translate(0 0)">
                        <path id="Path_741" data-name="Path 741" d="M16.08,35.8H2.137A2.139,2.139,0,0,0,0,37.938v11.4a2.139,2.139,0,0,0,2.137,2.137H16.08a2.139,2.139,0,0,0,2.137-2.137v-11.4A2.139,2.139,0,0,0,16.08,35.8Zm.712,13.533a.713.713,0,0,1-.712.712H2.137a.713.713,0,0,1-.712-.712V45.85l3.036-4.437L5.886,43.2l-3.6,5.177,1.169.814,4.409-6.338,4.661,6.059h4.268Zm0-1.852H13.226l-5.42-7.046-1.071,1.54L4.371,39.021,1.425,43.328v-5.39a.713.713,0,0,1,.712-.712H16.08a.713.713,0,0,1,.712.712Z" transform="translate(0 -35.801)" fill="#008837"></path>
                      </g>
                    </g>
                    <g id="Group_1564" data-name="Group 1564" transform="translate(11.308 38.365)">
                      <g id="Group_1563" data-name="Group 1563" transform="translate(0 0)">
                        <path id="Path_742" data-name="Path 742" d="M319.962,107.866A2.137,2.137,0,1,0,322.1,110,2.139,2.139,0,0,0,319.962,107.866Zm0,2.849a.712.712,0,1,1,.712-.712A.713.713,0,0,1,319.962,110.715Z" transform="translate(-317.825 -107.866)" fill="#008837"></path>
                      </g>
                    </g>
                  </g>
                </g>
              </svg>