<svg
                xmlns="http://www.w3.org/2000/svg"
                width="24"
                height="24"
                viewBox="0 0 24 24"
              >
                <g
                  id="Group_1912"
                  data-name="Group 1912"
                  transform="translate(-202 -364)"
                >
                  <rect
                    id="Rectangle_1666"
                    data-name="Rectangle 1666"
                    width="24"
                    height="24"
                    transform="translate(202 364)"
                    fill="#e8e8e8"
                    opacity="0"
                  ></rect>
                  <g id="plane" transform="translate(204.625 366.999)">
                    <g
                      id="Group_1539"
                      data-name="Group 1539"
                      transform="translate(0.145 0.001)"
                    >
                      <path
                        id="Path_737"
                        data-name="Path 737"
                        d="M16.447,11.234l-.4.4-.153-1.4,1.21-1.21-1.01-1.01-.4.4L15.481,6.5l1.546-1.549c.788-.788,2.092-3.338.936-4.494s-3.706.148-4.5.938L11.93,2.942,10,2.73l.4-.4-1.01-1.01-1.21,1.21-1.4-.153.4-.4L6.178.964,4.964,2.179,3.041,1.968.145,4.633,7.62,7.276l-3.381,3.4-2.508,0L.149,12.334l3.835,1.982,2.263,3.97L7.82,16.635V14.181l3.338-3.345,2.631,7.441,2.665-2.9-.211-1.922,1.214-1.214ZM2.858,4.078l.673-.619,7.112.779L8.735,6.156ZM6.392,13.59v2.067L5.015,13.242l-2.2-1.14,2.022,0,9.646-9.7A4.244,4.244,0,0,1,15.9,1.595c.7-.242,1.012-.16,1.051-.127s.116.358-.126,1.053a4.244,4.244,0,0,1-.81,1.423Zm7.952,1.974-2.069-5.85L14.187,7.8l.777,7.092Z"
                        transform="translate(-0.145 -0.001)"
                        fill="#008837"
                      ></path>
                    </g>
                  </g>
                </g>
              </svg>