<svg xmlns="http://www.w3.org/2000/svg" width="24" height="24" viewBox="0 0 24 24">
                <g id="Group_1919" data-name="Group 1919" transform="translate(-27 -602)">
                  <rect id="Rectangle_1674" data-name="Rectangle 1674" width="24" height="24" transform="translate(27 602)" fill="#e8e8e8" opacity="0"></rect>
                  <path id="play_1_" data-name="play (1)" d="M10.109,20.218A10.109,10.109,0,0,1,2.96,2.96a10.109,10.109,0,0,1,14.3,14.3,10.043,10.043,0,0,1-7.148,2.961Zm0-18.639a8.53,8.53,0,1,0,8.53,8.53A8.54,8.54,0,0,0,10.109,1.579ZM7.068,15.119V5.17l8.01,5Zm1.58-7.1v4.268l3.437-2.124Zm0,0" transform="translate(29 604.001)" fill="#008837"></path>
                </g>
              </svg>