<svg xmlns="http://www.w3.org/2000/svg" width="24" height="24" viewBox="0 0 24 24">
                <g id="Group_1904" data-name="Group 1904" transform="translate(-202 -152)">
                  <rect id="Rectangle_1658" data-name="Rectangle 1658" width="24" height="24" transform="translate(202 152)" fill="#e8e8e8" opacity="0"></rect>
                  <path id="ping-pong" d="M15.948,13.048a3.4,3.4,0,1,0,3.4,3.4,3.4,3.4,0,0,0-3.4-3.4Zm0,5.291a1.89,1.89,0,1,1,1.889-1.89A1.892,1.892,0,0,1,15.948,18.338ZM5.384,5.8l7.136,7.136a4.942,4.942,0,0,0-.915,1.222L4.751,7.3a5.569,5.569,0,0,0-.178,1.5,6.285,6.285,0,0,0,1.061,3.316l.358.548-4.23,3.726a.756.756,0,0,0-.03,1.1l.629.63a.756.756,0,0,0,1.1-.03l3.726-4.23.548.358a6.269,6.269,0,0,0,3.383,1.061h.061a4.906,4.906,0,0,0-.142,1.172c0,.114,0,.227.012.339a7.674,7.674,0,0,1-3.576-.967L4.589,19.093a2.276,2.276,0,0,1-1.628.758H2.9a2.277,2.277,0,0,1-1.6-.664l-.629-.629a2.267,2.267,0,0,1,.095-3.3l0,0L4.031,12.38a7.678,7.678,0,0,1-.968-3.551A7.247,7.247,0,0,1,5.24,3.549,10.427,10.427,0,0,1,12.272.5,7.005,7.005,0,0,1,17.4,2.453a7.041,7.041,0,0,1,1.951,5.186,9.875,9.875,0,0,1-.823,3.692q-.162.375-.354.738a4.872,4.872,0,0,0-1.464-.474,8.529,8.529,0,0,0,1.13-3.984,5.546,5.546,0,0,0-1.508-4.089h0a5.5,5.5,0,0,0-4.036-1.508,8.882,8.882,0,0,0-5.985,2.6A6.135,6.135,0,0,0,5.384,5.8Zm0,0" transform="translate(204 153.499)" fill="#008837"></path>
                </g>
              </svg>