<svg width="24" height="24" viewBox="0 0 20 20" fill="none" xmlns="http://www.w3.org/2000/svg">
                <path fill-rule="evenodd" clip-rule="evenodd" d="M6.56741 0.0351883C6.42573 0.0921173 5.88274 0.656914 5.70461 0.93265C5.35917 1.46724 5.17337 2.15192 5.19635 2.80549L5.2096 3.18293L4.89701 3.07536C4.4787 2.93138 4.07105 2.87277 3.65251 2.89645C3.28284 2.91735 3.1503 2.976 3.04887 3.16355C2.96311 3.32214 3.00972 4.32413 3.11869 4.6641C3.20809 4.943 3.40283 5.3519 3.54666 5.56277C3.65489 5.72141 3.64919 5.7386 3.48844 5.7386C3.29155 5.7386 3.12229 5.83886 3.05751 5.9939C2.97295 6.19634 2.98366 6.94388 3.07634 7.30628C3.17574 7.69489 3.32644 8.05815 3.49149 8.30705C3.56612 8.41954 3.62715 8.51839 3.62715 8.52671C3.62715 8.53504 3.5574 8.55301 3.47215 8.56665C3.04707 8.63459 2.98639 8.75576 3.01226 9.48501C3.03742 10.1939 3.16859 10.6367 3.51231 11.1732C3.57546 11.2717 3.62715 11.364 3.62715 11.3783C3.62715 11.3925 3.56123 11.4044 3.48063 11.4047C3.10549 11.4062 3.0021 11.5876 3.0021 12.2442C3.0021 12.773 3.05637 12.9474 3.24951 13.0391C3.40053 13.1108 3.6046 13.0667 3.70361 12.9408C3.77051 12.8557 3.78344 12.7826 3.78344 12.4891V12.1389L4.02764 12.167C4.58095 12.231 5.01646 12.4083 5.41305 12.7313C5.9458 13.1652 6.31993 13.9186 6.3225 14.5628L6.32317 14.7324L5.99629 14.7051C5.62732 14.6744 5.5362 14.7034 5.44442 14.8808C5.35752 15.0489 5.37206 15.1782 5.49287 15.3119C5.57754 15.4056 5.65002 15.4388 5.83476 15.4686C5.9637 15.4893 6.13515 15.5064 6.21572 15.5066L6.36224 15.5068V17.6341V19.7613L6.45023 19.8636C6.50876 19.9317 6.59187 19.9731 6.69866 19.9874C6.83799 20.0061 6.87652 19.9934 6.99163 19.8906L7.12416 19.7722L7.1349 17.6448L7.14565 15.5174L7.43791 15.4909C8.06038 15.4345 8.66914 15.2109 9.16638 14.8561L9.4182 14.6764L9.6778 14.7798C9.92701 14.879 10.3552 14.9755 10.7483 15.0212C10.9145 15.0405 10.9321 15.0517 10.9154 15.1283C10.7659 15.8122 10.5488 19.3939 10.6357 19.7402C10.6669 19.8645 10.8676 19.9998 11.021 20C11.084 20.0001 11.1803 19.9533 11.2555 19.8861L11.3831 19.7722L11.4089 18.7956C11.4231 18.2585 11.4546 17.5581 11.4788 17.2392C11.5251 16.6283 11.6695 15.2454 11.6949 15.1687C11.7044 15.1401 11.8321 15.1849 12.0436 15.2911C12.5788 15.5597 12.9281 15.6408 13.5516 15.641C13.983 15.6412 14.1355 15.6251 14.3884 15.5529C14.7183 15.4585 15.1377 15.263 15.4021 15.0803C15.958 14.6961 16.4557 14.052 16.3805 13.814C16.3066 13.5801 15.864 13.1903 15.3701 12.9238C15.0622 12.7577 15.0621 12.7576 15.1567 12.6973C15.3658 12.5639 15.8398 12.0716 16.0145 11.8062C16.2223 11.4906 16.4284 11.0257 16.4629 10.795C16.4971 10.566 16.3921 10.4287 16.0615 10.27L15.7883 10.1388L16.095 9.85026C16.2637 9.69155 16.462 9.47954 16.5358 9.37905C16.8147 8.99903 17.1072 8.28282 17.1072 7.97977C17.1072 7.7898 17.0203 7.68024 16.7847 7.57338C16.672 7.52227 16.5734 7.47624 16.5655 7.47116C16.5577 7.46608 16.6603 7.36102 16.7935 7.23766C17.2734 6.79341 17.6228 6.22236 17.7722 5.63807C17.8776 5.22597 17.8744 4.98922 17.7617 4.86306C17.6449 4.73228 17.3381 4.61831 16.8995 4.54286C16.7022 4.50886 16.5381 4.47831 16.535 4.47491C16.5319 4.47151 16.6063 4.3378 16.7004 4.17776C17.0251 3.62566 17.1704 3.01171 17.1348 2.34216C17.0987 1.66351 16.902 1.09976 16.6612 0.98493C16.541 0.927649 16.5061 0.928079 16.2231 0.990205C15.1766 1.21999 14.2852 1.94299 13.8853 2.88629C13.8443 2.98299 13.7986 3.07657 13.7838 3.09427C13.769 3.11197 13.6915 3.04668 13.6116 2.9492C13.4479 2.74926 12.9902 2.3892 12.7424 2.26527C12.6519 2.22002 12.513 2.18298 12.4336 2.18298C12.3141 2.18298 12.2628 2.2115 12.135 2.34904C11.909 2.59223 11.7649 2.81338 11.5983 3.17257C11.3656 3.67462 11.3063 3.95751 11.3056 4.56872L11.3049 5.09851L11.1114 5.02497C10.7505 4.88783 10.5546 5.01126 10.3216 5.52257L10.2109 5.76552L10.0351 5.74684C9.93838 5.73661 9.85394 5.72375 9.84745 5.71832C9.84097 5.71293 9.90634 5.59911 9.99273 5.46544C10.3326 4.9396 10.5339 4.16467 10.4884 3.55748C10.4622 3.20836 10.3959 3.03207 10.2643 2.96162C10.2189 2.93736 10.0125 2.90833 9.80561 2.89719C9.3762 2.87406 8.86552 2.95299 8.50437 3.09826L8.28255 3.18746L8.28415 2.73406C8.28724 1.85293 8.00091 1.1077 7.42318 0.493355C6.9885 0.0311247 6.81228 -0.063236 6.56741 0.0351883ZM7.2134 1.51233C7.70564 2.45067 7.57787 3.57377 6.89039 4.35152L6.75223 4.50781L6.55448 4.29291C6.14969 3.85303 5.94998 3.2517 5.98363 2.57371C6.0125 1.99074 6.17833 1.55629 6.54268 1.10906L6.72921 0.880058L6.91328 1.08554C7.01448 1.19858 7.14956 1.39062 7.2134 1.51233ZM16.3204 2.01368C16.3825 2.32302 16.3758 2.8267 16.3059 3.10275C16.218 3.44972 15.9659 3.93188 15.7407 4.18362C15.3781 4.58892 14.5829 5.03033 14.489 4.87833C14.4334 4.78847 14.3911 4.41946 14.3981 4.08633C14.4177 3.15394 15.0427 2.25561 15.9277 1.8879C16.2538 1.75244 16.2689 1.75728 16.3204 2.01368ZM12.7781 3.22817C13.1702 3.57768 13.4073 3.9284 13.5543 4.3768C13.6885 4.78624 13.6903 5.47689 13.558 5.88028C13.4602 6.17872 13.2498 6.56206 13.1689 6.58902C13.0973 6.61289 12.53 6.02645 12.4031 5.79721C12.0353 5.13274 11.9711 4.28955 12.2382 3.63215C12.3442 3.37134 12.5216 3.08165 12.5752 3.08165C12.5963 3.08165 12.6877 3.14761 12.7781 3.22817ZM4.42388 3.74479C5.13114 3.9257 5.73594 4.40735 6.04427 5.03529C6.2088 5.37034 6.32125 5.78689 6.3225 6.06595L6.32317 6.21751L6.02035 6.19892C5.28942 6.15398 4.60123 5.7393 4.1719 5.08515C3.93571 4.72525 3.82239 4.39637 3.79454 3.99009L3.77242 3.66774H3.94751C4.04382 3.66774 4.25817 3.7024 4.42388 3.74479ZM9.7055 3.94258C9.69062 4.09371 9.65119 4.30908 9.61794 4.42114C9.37112 5.25226 8.66249 5.93642 7.82903 6.14828C7.5717 6.21369 7.1437 6.22802 7.1437 6.17121C7.1437 5.97745 7.24986 5.46822 7.33722 5.24273C7.68407 4.34781 8.61232 3.68599 9.54194 3.67083L9.73258 3.66774L9.7055 3.94258ZM16.8095 5.31458C17.0315 5.35916 17.0327 5.36006 17.0093 5.48064C16.9963 5.5473 16.9136 5.75071 16.8255 5.93263C16.3581 6.89758 15.2109 7.46733 14.1601 7.2563C13.9364 7.21137 13.9352 7.21035 13.9581 7.09024C13.9707 7.02378 14.0541 6.81994 14.1432 6.63727C14.6135 5.67417 15.7623 5.10425 16.8095 5.31458ZM11.43 6.06267C12.1392 6.54506 12.536 7.35375 12.4861 8.21507C12.4672 8.54183 12.3585 8.99234 12.2634 9.13793C12.2012 9.23315 11.8193 9.00868 11.4962 8.68699C11.1908 8.383 10.9455 7.9482 10.8365 7.51797C10.7701 7.25603 10.76 6.70147 10.8172 6.45402C10.8835 6.16637 11.0157 5.85582 11.0717 5.85582C11.1015 5.85582 11.2627 5.94889 11.43 6.06267ZM4.4644 6.58308C5.48549 6.83049 6.3184 7.86881 6.3225 8.89935L6.32317 9.071L6.04454 9.04509C5.70133 9.01321 5.24191 8.86266 4.95601 8.68836C4.27564 8.27364 3.78528 7.45221 3.78391 6.72483L3.78344 6.48032L4.00811 6.50364C4.13166 6.51646 4.33698 6.55225 4.4644 6.58308ZM9.71562 6.61113C9.73762 6.80318 9.60516 7.34953 9.46771 7.63363C9.20807 8.17029 8.78421 8.58528 8.2418 8.83394C7.98673 8.95089 7.51965 9.05978 7.27318 9.05978H7.13604L7.16265 8.81558C7.23599 8.14318 7.44463 7.70001 7.90378 7.24145C8.32752 6.81826 8.76373 6.59519 9.31223 6.52119C9.66057 6.47418 9.70097 6.48317 9.71562 6.61113ZM16.0663 8.12731C16.1492 8.15455 16.2262 8.20057 16.2373 8.22957C16.2789 8.33791 15.9695 8.86903 15.7 9.15215C15.2814 9.59184 14.7967 9.83835 14.1832 9.92368C13.7619 9.98229 13.0436 9.8725 13.0437 9.7495C13.0438 9.65334 13.2853 9.2008 13.4527 8.98332C13.7621 8.58114 14.3012 8.23699 14.8335 8.10176C15.0963 8.03502 15.8318 8.05022 16.0663 8.12731ZM10.8914 9.24538C11.1337 9.49224 11.2631 9.66197 11.3568 9.85616C11.5296 10.2141 11.6371 10.6504 11.6371 10.9939C11.6371 11.2701 11.5152 11.8542 11.4425 11.9269C11.3331 12.0363 10.5199 11.442 10.254 11.0583L10.1448 10.9008L10.2617 10.5957C10.4321 10.1508 10.4809 9.87781 10.482 9.3626C10.4825 9.10565 10.499 8.90349 10.5193 8.90349C10.5394 8.90349 10.7068 9.05736 10.8914 9.24538ZM4.38403 9.39151C5.06843 9.53651 5.73024 10.0583 6.04478 10.7008C6.20904 11.0364 6.32125 11.453 6.3225 11.7321L6.32317 11.8842L6.02035 11.8631C4.86622 11.7828 3.86412 10.7898 3.7927 9.65564L3.77242 9.33329L3.94399 9.33396C4.03835 9.33435 4.23637 9.36025 4.38403 9.39151ZM9.7055 9.60813C9.64439 10.2285 9.41847 10.6976 8.96281 11.1503C8.60947 11.5014 8.32619 11.6703 7.88659 11.7921C7.55521 11.8839 7.14323 11.9017 7.14448 11.8242C7.14714 11.6557 7.2356 11.1908 7.30483 10.9811C7.41095 10.6599 7.71564 10.2075 7.99134 9.96178C8.39418 9.60274 9.0354 9.34044 9.52241 9.33544L9.73258 9.33329L9.7055 9.60813ZM15.3234 10.8011C15.449 10.8391 15.5609 10.8938 15.572 10.9228C15.6142 11.0328 15.3653 11.4269 15.0559 11.7401C14.6916 12.1089 14.291 12.3328 13.8006 12.442C13.3417 12.5441 12.6729 12.4808 12.3426 12.304C12.2632 12.2615 12.2635 12.2591 12.3755 12.0378C12.6841 11.4279 13.2674 10.9624 13.9565 10.7759C14.3027 10.6823 14.9708 10.6946 15.3234 10.8011ZM9.7225 12.2849C9.7225 12.5394 9.60094 13.0229 9.46747 13.2992C9.06975 14.1227 8.26434 14.6668 7.39767 14.6975L7.16323 14.7058L7.17531 14.4714C7.2061 13.8734 7.43909 13.3722 7.90378 12.9047C8.15123 12.6557 8.28931 12.5532 8.55196 12.4237C8.8688 12.2674 9.2832 12.1587 9.59551 12.15C9.71554 12.1467 9.7225 12.1541 9.7225 12.2849ZM10.6021 12.9768C10.7628 13.3279 10.8414 13.7456 10.8216 14.1425L10.8165 14.2435L10.5723 14.2105C10.3002 14.1736 9.94642 14.0673 9.96502 14.028C9.97167 14.014 10.0413 13.8787 10.1198 13.7273C10.1982 13.5759 10.3006 13.321 10.3474 13.1607C10.3941 13.0005 10.4391 12.8474 10.4474 12.8205C10.4739 12.7345 10.5061 12.767 10.6021 12.9768ZM14.6066 13.4362C14.8771 13.5266 15.1778 13.6863 15.3666 13.8397C15.4801 13.932 15.4809 13.9352 15.4144 14.0366C15.3127 14.1919 14.9338 14.4769 14.6261 14.6296C13.8224 15.0286 12.8624 14.9443 12.0766 14.4056C11.9853 14.343 11.9106 14.2758 11.9106 14.2562C11.9106 14.1913 12.3313 13.8091 12.5453 13.6797C12.7644 13.5471 13.1062 13.4138 13.3754 13.3559C13.6465 13.2975 14.3239 13.3417 14.6066 13.4362ZM3.95536 13.9986C3.77512 14.1788 3.77512 14.3341 3.95536 14.5143C4.09751 14.6565 4.21582 14.6799 4.39016 14.6005C4.65875 14.4781 4.66664 14.0578 4.40294 13.9214C4.22746 13.8307 4.10153 13.8524 3.95536 13.9986Z" fill="#008837"></path>
              </svg>