<svg version="1.1" id="Layer_1" xmlns="http://www.w3.org/2000/svg" xmlns:xlink="http://www.w3.org/1999/xlink" x="0px" y="0px" width="24" height="24" viewBox="0 0 2000 2000" style="enable-background: new 0 0 2000 2000" xml:space="preserve">
                <style type="text/css">
                  .st0 {
                    fill: #50b848;
                  }
                  #Layer_1 {
                    width: 30px !important;
                    vertical-align: text-bottom;
                  }
                </style>
                <g>
                  <g>
                    <path class="st0" d="M1098.4,887.6c0-54.2-44.1-98.4-98.4-98.4c-54.2,0-98.4,44.1-98.4,98.4c0,54.2,44.1,98.4,98.4,98.4
                            C1054.2,985.9,1098.4,941.8,1098.4,887.6z M931.6,887.6c0-37.7,30.7-68.4,68.4-68.4c37.7,0,68.4,30.7,68.4,68.4
                            c0,37.7-30.7,68.4-68.4,68.4C962.3,955.9,931.6,925.3,931.6,887.6z"></path>
                    <path class="st0" d="M1019.5,922.1c3.8,0,7.7-1.5,10.6-4.4c5.9-5.9,5.9-15.4,0-21.2l-15.1-15.1v-30.4c0-8.3-6.7-15-15-15
                            c-8.3,0-15,6.7-15,15v36.6c0,4,1.6,7.8,4.4,10.6l19.5,19.5C1011.8,920.6,1015.6,922.1,1019.5,922.1z"></path>
                    <path class="st0" d="M1903.8,1251.9c0-0.3,0-0.6,0-0.9c0-0.2,0-0.4-0.1-0.7c0-0.3-0.1-0.5-0.1-0.8c0-0.3-0.1-0.5-0.2-0.8
                            c0-0.2-0.1-0.4-0.2-0.6c-0.1-0.3-0.2-0.5-0.3-0.8c-0.1-0.2-0.1-0.4-0.2-0.5c-0.1-0.3-0.2-0.5-0.3-0.8c-0.1-0.2-0.2-0.4-0.3-0.6
                            c-0.1-0.2-0.2-0.5-0.4-0.7c-0.1-0.2-0.2-0.4-0.4-0.6c-0.1-0.2-0.3-0.4-0.4-0.6c-0.2-0.2-0.3-0.4-0.5-0.6c-0.1-0.2-0.3-0.3-0.4-0.5
                            c-0.2-0.2-0.4-0.4-0.6-0.6c-0.1-0.1-0.3-0.3-0.4-0.4c-0.2-0.2-0.4-0.4-0.6-0.6c-0.2-0.1-0.3-0.3-0.5-0.4c-0.2-0.2-0.4-0.3-0.6-0.5
                            c-0.2-0.1-0.4-0.3-0.6-0.4c-0.2-0.1-0.4-0.2-0.6-0.3c-0.3-0.2-0.5-0.3-0.8-0.4c-0.1-0.1-0.2-0.1-0.3-0.2l-140.2-64.4
                            c-4-1.8-8.6-1.8-12.5,0l-118.9,54.7v-96c0-8.3-6.7-15-15-15h-176.7l-177.4-107.7c-0.1-0.1-0.2-0.1-0.3-0.1
                            c-0.3-0.2-0.5-0.3-0.8-0.4c-0.2-0.1-0.4-0.2-0.5-0.3c-0.3-0.1-0.5-0.2-0.8-0.3c-0.2-0.1-0.4-0.2-0.6-0.2c-0.2-0.1-0.5-0.2-0.7-0.2
                            c-0.2-0.1-0.5-0.1-0.7-0.2c-0.2,0-0.4-0.1-0.7-0.1c-0.3,0-0.6-0.1-0.8-0.1c-0.2,0-0.4,0-0.6-0.1c-0.3,0-0.6,0-0.9,0
                            c-0.1,0-0.2,0-0.3,0h-41.8V767.1h27.9c8.3,0,15-6.7,15-15v-36.6c0-5.4-2.9-10.4-7.7-13.1l-35.3-19.7v-92.4h68.4
                            c7.3,0,13.5-5.2,14.8-12.3c1.3-7.1-2.7-14.2-9.5-16.7l-273-102.3c-0.1,0-0.1,0-0.2-0.1c-0.3-0.1-0.5-0.2-0.8-0.3
                            c-0.2-0.1-0.4-0.1-0.6-0.2c-0.2-0.1-0.5-0.1-0.7-0.2c-0.2,0-0.5-0.1-0.7-0.1c-0.2,0-0.4,0-0.7-0.1c-0.3,0-0.5-0.1-0.8-0.1
                            c-0.2,0-0.4,0-0.6,0c-0.3,0-0.6,0-0.8,0c-0.2,0-0.4,0-0.6,0.1c-0.3,0-0.6,0-0.9,0.1c-0.2,0-0.4,0.1-0.6,0.1
                            c-0.3,0.1-0.6,0.1-0.9,0.2c-0.2,0-0.4,0.1-0.6,0.2c-0.3,0.1-0.6,0.2-0.9,0.3c-0.1,0-0.1,0-0.2,0.1l-273,102.3
                            c-6.8,2.5-10.8,9.6-9.5,16.7c1.3,7.1,7.5,12.3,14.8,12.3h68.4v92.4l-35.3,19.7c-4.7,2.7-7.7,7.7-7.7,13.1v36.6c0,8.3,6.7,15,15,15
                            h27.9v240.9h-41.8c-0.1,0-0.2,0-0.3,0c-0.3,0-0.6,0-0.9,0c-0.2,0-0.4,0-0.6,0.1c-0.3,0-0.6,0.1-0.9,0.1c-0.2,0-0.4,0.1-0.6,0.1
                            c-0.3,0.1-0.5,0.1-0.8,0.2c-0.2,0.1-0.5,0.1-0.7,0.2c-0.2,0.1-0.4,0.2-0.6,0.2c-0.3,0.1-0.5,0.2-0.8,0.3c-0.2,0.1-0.4,0.2-0.6,0.3
                            c-0.3,0.1-0.5,0.3-0.8,0.4c-0.1,0.1-0.2,0.1-0.3,0.1l-177.4,107.7H391.6c-8.3,0-15,6.7-15,15v96l-118.9-54.7
                            c-4-1.8-8.5-1.8-12.5,0l-140.2,64.4c-0.1,0.1-0.2,0.1-0.3,0.2c-0.3,0.1-0.6,0.3-0.8,0.4c-0.2,0.1-0.4,0.2-0.6,0.3
                            c-0.2,0.1-0.4,0.3-0.6,0.4c-0.2,0.2-0.4,0.3-0.6,0.5c-0.2,0.1-0.3,0.3-0.5,0.4c-0.2,0.2-0.4,0.4-0.6,0.6c-0.1,0.1-0.3,0.3-0.4,0.4
                            c-0.2,0.2-0.4,0.4-0.6,0.6c-0.1,0.2-0.3,0.3-0.4,0.5c-0.2,0.2-0.3,0.4-0.5,0.6c-0.1,0.2-0.3,0.4-0.4,0.6c-0.1,0.2-0.2,0.4-0.4,0.6
                            c-0.1,0.2-0.3,0.5-0.4,0.7c-0.1,0.2-0.2,0.4-0.3,0.6c-0.1,0.3-0.2,0.5-0.3,0.8c-0.1,0.2-0.1,0.4-0.2,0.6c-0.1,0.3-0.2,0.5-0.3,0.8
                            c-0.1,0.2-0.1,0.4-0.2,0.6c-0.1,0.3-0.1,0.5-0.2,0.8c0,0.3-0.1,0.5-0.1,0.8c0,0.2-0.1,0.4-0.1,0.6c0,0.3,0,0.6,0,0.9
                            c0,0.1,0,0.2,0,0.4v274.7c0,8.3,6.7,15,15,15h1777.6c8.3,0,15-6.7,15-15v-274.7C1903.8,1252.2,1903.8,1252.1,1903.8,1251.9z
                             M1748.6,1204.4l71.6,32.9H1677L1748.6,1204.4z M1593.4,1512.1h-66.6v-125.2c0-8.3-6.7-15-15-15h-204.6c-8.3,0-15,6.7-15,15v125.2
                            h-30.6v-364.1h165.9c0,0,0,0,0.1,0c0,0,0.1,0,0.1,0h165.9V1512.1z M1496.8,1512.1h-174.6v-110.2h174.6V1512.1z M1261.5,1117.9
                            v-68.2l112.4,68.2H1261.5z M1000,676.5H825.3v-86.2H1000h174.7v86.2H1000z M1000,489l190.3,71.3h-0.6H1000H810.3h-0.6L1000,489z
                             M782.4,724.3l31.9-17.8H1000h185.8l31.9,17.8v12.8H1000H782.4V724.3z M825.3,767.1H1000h174.7v240.9H1000H825.3V767.1z
                             M768.5,1038.1H1000h231.5v474h-95.1v-212.2c0-75.2-61.2-136.4-136.4-136.4c0,0,0,0,0,0c0,0,0,0,0,0
                            c-75.2,0-136.4,61.2-136.4,136.4v212.2h-95.1V1038.1z M1000,1193.4c58.7,0,106.4,47.8,106.4,106.4v212.2H893.6v-212.2
                            C893.6,1241.2,941.3,1193.4,1000,1193.4z M738.5,1049.7v68.2H626.1L738.5,1049.7z M406.6,1147.9h165.9c0,0,0.1,0,0.1,0
                            c0,0,0,0,0.1,0h165.9v364.1h-30.6v-125.2c0-8.3-6.7-15-15-15H488.2c-8.3,0-15,6.7-15,15v125.2h-66.6V1147.9z M677.9,1512.1H503.2
                            v-110.2h174.6V1512.1z M251.4,1204.4l71.6,32.9H179.8L251.4,1204.4z M126.2,1267.3h250.4v244.7h-56.5v-115.1
                            c0-37.9-30.8-68.7-68.7-68.7c-37.9,0-68.7,30.8-68.7,68.7v115.1h-56.5V1267.3z M290.1,1512.1h-77.3v-115.1
                            c0-21.3,17.3-38.7,38.7-38.7c21.3,0,38.7,17.3,38.7,38.7V1512.1z M1787.3,1512.1h-77.3v-115.1c0-21.3,17.3-38.7,38.7-38.7
                            c21.3,0,38.7,17.3,38.7,38.7V1512.1z M1873.8,1512.1h-56.5v-115.1c0-37.9-30.8-68.7-68.7-68.7c-37.9,0-68.7,30.8-68.7,68.7v115.1
                            h-56.5v-244.7h250.4V1512.1z"></path>
                    <path class="st0" d="M488.2,1350.2h13.9c8.3,0,15-6.7,15-15s-6.7-15-15-15h-13.9c-8.3,0-15,6.7-15,15S480,1350.2,488.2,1350.2z"></path>
                    <path class="st0" d="M551.8,1350.2h13.9c8.3,0,15-6.7,15-15s-6.7-15-15-15h-13.9c-8.3,0-15,6.7-15,15S543.5,1350.2,551.8,1350.2z"></path>
                    <path class="st0" d="M600.4,1335.2c0,8.3,6.7,15,15,15h13.9c8.3,0,15-6.7,15-15s-6.7-15-15-15h-13.9
                            C607.1,1320.2,600.4,1326.9,600.4,1335.2z"></path>
                    <path class="st0" d="M678.9,1350.2h13.9c8.3,0,15-6.7,15-15s-6.7-15-15-15h-13.9c-8.3,0-15,6.7-15,15S670.7,1350.2,678.9,1350.2z"></path>
                    <path class="st0" d="M1094.8,618.4H1000h-94.8c-8.3,0-15,6.7-15,15c0,8.3,6.7,15,15,15h94.8h94.8c8.3,0,15-6.7,15-15
                            C1109.8,625.1,1103.1,618.4,1094.8,618.4z"></path>
                    <path class="st0" d="M1497.8,1350.2h13.9c8.3,0,15-6.7,15-15s-6.7-15-15-15h-13.9c-8.3,0-15,6.7-15,15
                            S1489.5,1350.2,1497.8,1350.2z"></path>
                    <path class="st0" d="M1419.3,1335.2c0,8.3,6.7,15,15,15h13.9c8.3,0,15-6.7,15-15s-6.7-15-15-15h-13.9
                            C1426,1320.2,1419.3,1326.9,1419.3,1335.2z"></path>
                    <path class="st0" d="M1384.6,1320.2h-13.9c-8.3,0-15,6.7-15,15s6.7,15,15,15h13.9c8.3,0,15-6.7,15-15S1392.9,1320.2,1384.6,1320.2
                            z"></path>
                    <path class="st0" d="M1321.1,1320.2h-13.9c-8.3,0-15,6.7-15,15s6.7,15,15,15h13.9c8.3,0,15-6.7,15-15S1329.3,1320.2,1321.1,1320.2
                            z"></path>
                    <path class="st0" d="M569.1,1247.1H612c8.3,0,15-6.7,15-15s-6.7-15-15-15h-42.8c-8.3,0-15,6.7-15,15S560.9,1247.1,569.1,1247.1z"></path>
                    <path class="st0" d="M979.5,1114.5h42.8c8.3,0,15-6.7,15-15s-6.7-15-15-15h-42.8c-8.3,0-15,6.7-15,15S971.3,1114.5,979.5,1114.5z"></path>
                    <path class="st0" d="M1388,1217.1c-8.3,0-15,6.7-15,15s6.7,15,15,15h42.8c8.3,0,15-6.7,15-15s-6.7-15-15-15H1388z"></path>
                  </g>
                </g>
              </svg>