<svg xmlns="http://www.w3.org/2000/svg" width="24" height="24" viewBox="0 0 24 24">
                <g id="Group_1906" data-name="Group 1906" transform="translate(-202 -205)">
                  <rect id="Rectangle_1660" data-name="Rectangle 1660" width="24" height="24" transform="translate(202 205)" fill="#e8e8e8" opacity="0"></rect>
                  <path id="protection" d="M15.033,2.5A12.408,12.408,0,0,1,10.6.576a3.364,3.364,0,0,0-3.764,0A12.41,12.41,0,0,1,2.4,2.5,2.305,2.305,0,0,0,.5,4.771V9.405a8.558,8.558,0,0,0,1.273,4.435,12.871,12.871,0,0,0,2.721,3.139,17.875,17.875,0,0,0,3.912,2.537l.312.139.312-.139a17.874,17.874,0,0,0,3.912-2.537,12.871,12.871,0,0,0,2.721-3.139,8.558,8.558,0,0,0,1.273-4.435V4.771a2.305,2.305,0,0,0-1.9-2.269Zm.367,6.9c0,2.282-1.153,4.429-3.427,6.381a17.029,17.029,0,0,1-3.255,2.175,17.044,17.044,0,0,1-3.255-2.175c-2.274-1.952-3.427-4.1-3.427-6.381V4.771a.77.77,0,0,1,.638-.757A13.965,13.965,0,0,0,7.694,1.85a1.828,1.828,0,0,1,2.048,0,13.962,13.962,0,0,0,5.02,2.165.77.77,0,0,1,.638.757Zm-4.34,1.9a2.382,2.382,0,0,1-1.574,2.222v1.251H7.95V13.534a2.355,2.355,0,0,1-.884-.557,2.318,2.318,0,0,1-.69-1.65v-.307H7.912v.307a.815.815,0,0,0,.806.8.834.834,0,0,0,.806-.818c0-.335-.368-.563-1.15-.969l-.01-.005A2.656,2.656,0,0,1,6.606,7.972,2.07,2.07,0,0,1,7.95,6.049V4.8H9.486V6.045a2.117,2.117,0,0,1,.7.431,1.987,1.987,0,0,1,.644,1.471v.192H9.294V7.947a.54.54,0,0,0-.576-.5.555.555,0,0,0-.576.529c0,.411.191.617.93,1l.01.005a6.1,6.1,0,0,1,1.234.771,2.021,2.021,0,0,1,.744,1.561Zm0,0" transform="translate(204.68 207)" fill="#008837"></path>
                </g>
              </svg>