<svg xmlns="http://www.w3.org/2000/svg" width="20.97" height="20" viewBox="0 0 20.97 20">
            <g id="star" transform="translate(0 -10.99)">
              <path id="Path_698" data-name="Path 698" d="M20.97,18.74q0-.466-.706-.58l-6.326-.92L11.1,11.507q-.239-.517-.618-.517t-.617.517L7.032,17.241l-6.326.92Q0,18.274,0,18.74a.96.96,0,0,0,.315.6L4.9,23.807l-1.084,6.3a2.047,2.047,0,0,0-.025.252.743.743,0,0,0,.132.447.457.457,0,0,0,.4.183,1.069,1.069,0,0,0,.5-.151l5.658-2.974,5.659,2.974a1.02,1.02,0,0,0,.5.151q.517,0,.517-.63a1.909,1.909,0,0,0-.013-.252l-1.084-6.3,4.574-4.461A.913.913,0,0,0,20.97,18.74Zm-6.641,4.5.907,5.306-4.751-2.508L5.721,28.545l.92-5.306L2.785,19.5,8.1,18.715,10.485,13.9l2.382,4.814,5.319.781Z" transform="translate(0 0)" fill="#6c6e70"></path>
            </g>
          </svg>