<svg xmlns="http://www.w3.org/2000/svg" width="20" height="20.002" viewBox="0 0 20 20.002">
            <g id="tag" transform="translate(-0.019)">
              <g id="Group_1440" data-name="Group 1440" transform="translate(0.019)">
                <g id="Group_1439" data-name="Group 1439" transform="translate(0)">
                  <path id="Path_704" data-name="Path 704" d="M10.445,0,.7,9.761a2.347,2.347,0,0,0,0,3.312l6.231,6.241A2.329,2.329,0,0,0,8.591,20h0a2.329,2.329,0,0,0,1.656-.685l9.77-9.76V0Zm8.011,8.909-9.312,9.3a.776.776,0,0,1-.552.228h0a.776.776,0,0,1-.552-.229l-6.231-6.24a.782.782,0,0,1,0-1.1l9.285-9.3h7.363Z" transform="translate(-0.019)" fill="#6c6e70"></path>
                </g>
              </g>
              <g id="Group_1442" data-name="Group 1442" transform="translate(14.126 4.265)">
                <g id="Group_1441" data-name="Group 1441">
                  <circle id="Ellipse_14" data-name="Ellipse 14" cx="0.814" cy="0.814" r="0.814" fill="#6c6e70"></circle>
                </g>
              </g>
            </g>
          </svg>