<svg xmlns="http://www.w3.org/2000/svg" id="Layer_1" data-name="Layer 1" viewBox="0 0 30 30" style="width:86px !important" width="100%" height="100%">
                            <defs>
                                <style>
                                    .cls-1 { fill: #fe0000; }
                                </style>
                            </defs><title>favicon</title><path class="cls-1" d="M14.86,17.51h-1l-.15-.8-.06,0-.19.24a2.5,2.5,0,0,1-2.11.8,3.13,3.13,0,0,1-3-2.79,4.71,4.71,0,0,1,.27-2.65,3.11,3.11,0,0,1,2.91-1.93,3.32,3.32,0,0,1,2.5.82,2,2,0,0,1,.73,1.52H13.4A1.56,1.56,0,0,0,12,11.56a1.76,1.76,0,0,0-1.75.79,3.16,3.16,0,0,0-.43,2.1A2.16,2.16,0,0,0,10.51,16a1.9,1.9,0,0,0,1.94.38,1.78,1.78,0,0,0,1.12-1.43H12c0-.38,0-.73,0-1.07,0,0,.09-.12.13-.12h2.64c.17,0,.14.12.14.22v3.37C14.87,17.38,14.86,17.44,14.86,17.51Z"></path><path class="cls-1" d="M3.7,11.76H1.6V10.54H7.25v1.21H5.17v5.76H3.7Z"></path><path class="cls-1" d="M21.67,10.55v1.21H19.59V17.5H18.12V11.76H16V10.55Z"></path><path class="cls-1" d="M24.59,11.76h-2.1V10.54h5.65v1.21H26.06v5.76H24.59Z"></path><path class="cls-1" d="M11.63,22.73a1.26,1.26,0,0,1-1,1.36,1.31,1.31,0,0,1-1.5-1.65,1.24,1.24,0,0,1,1.6-1.06A1.28,1.28,0,0,1,11.63,22.73Zm-.35,0a1.56,1.56,0,0,0,0-.2.92.92,0,0,0-.85-.85.9.9,0,0,0-.95.74,1.3,1.3,0,0,0,.09.93.89.89,0,0,0,1.42.24A1.14,1.14,0,0,0,11.28,22.69Z"></path><path class="cls-1" d="M18.73,23.16c0,.37.11.56.35.63a.58.58,0,0,0,.68-.23c.06-.08.19-.09.28-.14l.07.09a2.82,2.82,0,0,1-.29.39.85.85,0,0,1-1.39-.47,1.78,1.78,0,0,1,0-.69.81.81,0,0,1,.94-.66c.39,0,.66.32.72.8,0,.08,0,.17,0,.28Zm1.06-.24c0-.38-.21-.59-.54-.57a.51.51,0,0,0-.5.57Z"></path><path class="cls-1" d="M13.6,24h-.31v-.69c0-.18,0-.37,0-.56a.39.39,0,0,0-.3-.43.49.49,0,0,0-.54.26,1.29,1.29,0,0,0-.08.39c0,.34,0,.68,0,1h-.29V22.14h.24l0,.21.09-.05a.69.69,0,0,1,.65-.2.53.53,0,0,1,.49.5c0,.4,0,.8,0,1.2Z"></path><path class="cls-1" d="M16.52,24h-.29V22.14h.25l0,.21a.33.33,0,0,0,.1-.06.68.68,0,0,1,.65-.19.54.54,0,0,1,.48.46c0,.1,0,.21,0,.31V24h-.3v-.72c0-.18,0-.35,0-.53s-.06-.37-.28-.42a.47.47,0,0,0-.55.24,1,1,0,0,0-.08.39C16.51,23.33,16.52,23.67,16.52,24Z"></path><path class="cls-1" d="M14.31,24V21.43h.28V24Z"></path><path class="cls-1" d="M15.57,24H15.3V22.14h.27Z"></path><path class="cls-1" d="M15.3,21.42h.27v.33H15.3Z"></path><path class="cls-1" d="M15,.56A14.44,14.44,0,1,1,.56,15,14.46,14.46,0,0,1,15,.56M15,0A15,15,0,1,0,30,15,15,15,0,0,0,15,0Z"></path></svg>