<svg width="203" height="19" viewBox="0 0 203 19" fill="none" xmlns="http://www.w3.org/2000/svg">
<path d="M5.268 15.3672L0.132 4.08719H3.268L6.5 11.5912L9.732 4.08719H12.756L7.604 15.3672H5.268ZM13.399 15.3672V4.08719H16.343V15.3672H13.399ZM18.3834 15.3672V4.08719H23.0554C25.0074 4.08719 26.522 4.57785 27.5994 5.55919C28.6767 6.54052 29.2154 7.92719 29.2154 9.71919C29.2154 11.5112 28.6767 12.9032 27.5994 13.8952C26.522 14.8765 25.0074 15.3672 23.0554 15.3672H18.3834ZM21.3274 12.9832H22.8634C23.9834 12.9832 24.81 12.7165 25.3434 12.1832C25.8874 11.6392 26.1594 10.8179 26.1594 9.71919C26.1594 8.62052 25.8874 7.80452 25.3434 7.27119C24.7994 6.73785 23.9727 6.47119 22.8634 6.47119H21.3274V12.9832ZM30.9615 15.3672V4.08719H38.9295V6.35919H33.7775V8.50319H38.5615V10.7752H33.7775V13.0952H38.9295V15.3672H30.9615ZM46.2609 15.5432C45.1195 15.5432 44.1169 15.3032 43.2529 14.8232C42.3995 14.3325 41.7329 13.6499 41.2529 12.7752C40.7729 11.9005 40.5329 10.8819 40.5329 9.71919C40.5329 8.54585 40.7675 7.52719 41.2369 6.66319C41.7169 5.78852 42.3889 5.11119 43.2529 4.63119C44.1169 4.15119 45.1195 3.91119 46.2609 3.91119C47.4022 3.91119 48.3995 4.15119 49.2529 4.63119C50.1169 5.11119 50.7889 5.78852 51.2689 6.66319C51.7489 7.52719 51.9889 8.54585 51.9889 9.71919C51.9889 10.8819 51.7489 11.9005 51.2689 12.7752C50.7889 13.6499 50.1169 14.3325 49.2529 14.8232C48.3995 15.3032 47.4022 15.5432 46.2609 15.5432ZM46.2609 13.0792C47.0929 13.0792 47.7435 12.7859 48.2129 12.1992C48.6929 11.6019 48.9329 10.7752 48.9329 9.71919C48.9329 8.66319 48.6982 7.84185 48.2289 7.25519C47.7595 6.66852 47.1035 6.37519 46.2609 6.37519C45.4182 6.37519 44.7622 6.66852 44.2929 7.25519C43.8235 7.84185 43.5889 8.66319 43.5889 9.71919C43.5889 10.7752 43.8235 11.6019 44.2929 12.1992C44.7622 12.7859 45.4182 13.0792 46.2609 13.0792ZM60.9613 15.3672V6.48719H57.3773V4.08719H67.4893V6.48719H63.9053V15.3672H60.9613ZM73.5941 15.5432C71.9515 15.5432 70.6928 15.1272 69.8181 14.2952C68.9541 13.4632 68.5221 12.2205 68.5221 10.5672V4.08719H71.4661V10.5992C71.4661 11.4205 71.6475 12.0392 72.0101 12.4552C72.3728 12.8712 72.9008 13.0792 73.5941 13.0792C74.2768 13.0792 74.7995 12.8712 75.1621 12.4552C75.5248 12.0392 75.7061 11.4205 75.7061 10.5992V4.08719H78.6021V10.5672C78.6021 12.2205 78.1755 13.4632 77.3221 14.2952C76.4795 15.1272 75.2368 15.5432 73.5941 15.5432ZM78.2981 5.38319L76.5861 4.32719V4.08719C76.8741 4.08719 77.1141 4.04985 77.3061 3.97519C77.5088 3.90052 77.6635 3.75119 77.7701 3.52719C77.8768 3.30319 77.9301 2.97252 77.9301 2.53519V2.10319H80.3621V2.87119C80.3621 3.52185 80.1701 4.08185 79.7861 4.55119C79.4021 5.02052 78.9061 5.29785 78.2981 5.38319ZM72.6181 3.12719L69.8341 0.311187H72.6821L74.5701 3.12719H72.6181ZM85.149 15.3672V4.08719H90.589C91.805 4.08719 92.7437 4.35385 93.405 4.88719C94.077 5.40985 94.413 6.11385 94.413 6.99919C94.413 7.58585 94.2637 8.09785 93.965 8.53519C93.677 8.97252 93.2717 9.29785 92.749 9.51119C93.3783 9.70319 93.8637 10.0285 94.205 10.4872C94.5463 10.9352 94.717 11.4952 94.717 12.1672C94.717 13.1592 94.3597 13.9432 93.645 14.5192C92.941 15.0845 91.9757 15.3672 90.749 15.3672H85.149ZM87.965 8.56719H90.061C90.5943 8.56719 90.9837 8.47119 91.229 8.27919C91.485 8.08719 91.613 7.79385 91.613 7.39919C91.613 7.00452 91.485 6.71652 91.229 6.53519C90.9837 6.34319 90.5943 6.24719 90.061 6.24719H87.965V8.56719ZM87.965 13.2072H90.349C90.893 13.2072 91.2877 13.1059 91.533 12.9032C91.789 12.6899 91.917 12.3752 91.917 11.9592C91.917 11.5432 91.789 11.2339 91.533 11.0312C91.2877 10.8285 90.893 10.7272 90.349 10.7272H87.965V13.2072ZM94.9921 15.3672L100.272 4.08719H102.592L107.872 15.3672H104.928L103.952 13.0792H98.9121L97.9361 15.3672H94.9921ZM101.408 7.15919L99.8721 10.8232H102.976L101.44 7.15919H101.408ZM100.448 3.12719L102.336 0.311187H105.184L102.4 3.12719H100.448ZM113.714 15.5432C112.573 15.5432 111.57 15.3032 110.706 14.8232C109.853 14.3325 109.186 13.6499 108.706 12.7752C108.226 11.9005 107.986 10.8819 107.986 9.71919C107.986 8.54585 108.221 7.52719 108.69 6.66319C109.17 5.78852 109.842 5.11119 110.706 4.63119C111.57 4.15119 112.573 3.91119 113.714 3.91119C114.855 3.91119 115.853 4.15119 116.706 4.63119C117.57 5.11119 118.242 5.78852 118.722 6.66319C119.202 7.52719 119.442 8.54585 119.442 9.71919C119.442 10.8819 119.202 11.9005 118.722 12.7752C118.242 13.6499 117.57 14.3325 116.706 14.8232C115.853 15.3032 114.855 15.5432 113.714 15.5432ZM113.714 13.0792C114.546 13.0792 115.197 12.7859 115.666 12.1992C116.146 11.6019 116.386 10.7752 116.386 9.71919C116.386 8.66319 116.151 7.84185 115.682 7.25519C115.213 6.66852 114.557 6.37519 113.714 6.37519C112.871 6.37519 112.215 6.66852 111.746 7.25519C111.277 7.84185 111.042 8.66319 111.042 9.71919C111.042 10.7752 111.277 11.6019 111.746 12.1992C112.215 12.7859 112.871 13.0792 113.714 13.0792ZM125.758 15.3672V4.08719H130.43C132.382 4.08719 133.897 4.57785 134.974 5.55919C136.052 6.54052 136.59 7.92719 136.59 9.71919C136.59 11.5112 136.052 12.9032 134.974 13.8952C133.897 14.8765 132.382 15.3672 130.43 15.3672H125.758ZM128.702 12.9832H130.238C131.358 12.9832 132.185 12.7165 132.718 12.1832C133.262 11.6392 133.534 10.8179 133.534 9.71919C133.534 8.62052 133.262 7.80452 132.718 7.27119C132.174 6.73785 131.348 6.47119 130.238 6.47119H128.702V12.9832ZM136.695 15.3672L141.975 4.08719H144.295L149.575 15.3672H146.631L145.655 13.0792H140.615L139.639 15.3672H136.695ZM143.111 7.15919L141.575 10.8232H144.679L143.143 7.15919H143.111ZM139.943 3.12719L141.959 0.311187H144.295L146.311 3.12719H144.391L143.127 1.75119L141.863 3.12719H139.943ZM150.258 15.3672V4.08719H152.418L157.602 10.5512V4.08719H160.322V15.3672H158.178L152.994 8.90319V15.3672H150.258ZM170.706 15.3672L165.569 4.08719H168.706L171.938 11.5912L175.17 4.08719H178.194L173.042 15.3672H170.706ZM178.837 15.3672V4.08719H181.781V15.3672H178.837ZM183.821 15.3672V4.08719H191.789V6.35919H186.637V8.50319H191.421V10.7752H186.637V13.0952H191.789V15.3672H183.821ZM186.845 18.9512V16.5672H189.405V18.9512H186.845ZM184.941 3.12719L186.957 0.311187H189.293L191.309 3.12719H189.389L188.125 1.75119L186.861 3.12719H184.941ZM196.383 15.3672V6.48719H192.799V4.08719H202.911V6.48719H199.327V15.3672H196.383Z" fill="url(#paint0_linear_1399_16307)"/>
<defs>
<linearGradient id="paint0_linear_1399_16307" x1="7.34752" y1="11.2512" x2="192.869" y2="11.2512" gradientUnits="userSpaceOnUse">
<stop stop-color="#8CC63F"/>
<stop offset="1" stop-color="#197338"/>
</linearGradient>
</defs>
</svg>
