<svg width="232" height="15" viewBox="0 0 232 15" fill="none" xmlns="http://www.w3.org/2000/svg">
<path d="M116 0L117.771 5.72949H123.5L118.865 9.27051L120.635 15L116 11.459L111.365 15L113.135 9.27051L108.5 5.72949H114.229L116 0Z" fill="#FAB908"/>
<path d="M133 4L133.898 6.76393H136.804L134.453 8.47214L135.351 11.2361L133 9.52786L130.649 11.2361L131.547 8.47214L129.196 6.76393H132.102L133 4Z" fill="#FAB908"/>
<path d="M99 4L99.8981 6.76393H102.804L100.453 8.47214L101.351 11.2361L99 9.52786L96.6489 11.2361L97.5469 8.47214L95.1958 6.76393H98.1019L99 4Z" fill="#FAB908"/>
<path d="M90 7V9L0 8L90 7Z" fill="#FAB908"/>
<path d="M142 7V9L232 8L142 7Z" fill="#FAB908"/>
</svg>
