<svg xmlns="http://www.w3.org/2000/svg" width="24" height="24" viewBox="0 0 24 24">
                <g id="Group_1918" data-name="Group 1918" transform="translate(-202 -523)">
                  <rect id="Rectangle_1673" data-name="Rectangle 1673" width="24" height="24" transform="translate(202 523)" fill="#e8e8e8" opacity="0"></rect>
                  <path id="buildings" d="M17.664,17.516V6.928L11.727,3.94V2.932H10.242V1.447H7.273V0H5.789V1.447H2.82V2.932H1.336V17.516H0V19H19V17.516ZM16.18,7.842v9.674H11.727V5.6ZM2.82,4.416H4.3V2.932H8.758V4.416h1.484v13.1H2.82ZM4.3,5.9H5.789V7.385H4.3Zm2.969,0H8.758V7.385H7.273ZM4.3,8.869H5.789v1.484H4.3Zm2.969,0H8.758v1.484H7.273ZM4.3,11.838H5.789v1.484H4.3Zm2.969,0H8.758v1.484H7.273ZM4.3,14.807H5.789v1.484H4.3Zm2.969,0H8.758v1.484H7.273ZM14.7,10.354H13.211V8.869H14.7Zm0,2.969H13.211V11.838H14.7Zm-1.484,2.969V14.807H14.7v1.484Zm0,0" transform="translate(204 526)" fill="#008837"></path>
                </g>
              </svg>