<svg xmlns="http://www.w3.org/2000/svg" width="24" height="24" viewBox="0 0 24 24">
                <g id="Group_1908" data-name="Group 1908" transform="translate(-202 -258)">
                  <rect id="Rectangle_1662" data-name="Rectangle 1662" width="24" height="24" transform="translate(202 258)" fill="#e8e8e8" opacity="0"></rect>
                  <g id="surface1" transform="translate(204.248 260)">
                    <path id="Path_735" data-name="Path 735" d="M19.17,11.244a4.389,4.389,0,0,1,.594,2.221,4.673,4.673,0,0,1-1.178,3.1A3.71,3.71,0,0,1,15.868,17.9V16.359a2.8,2.8,0,0,0,2.354-2.894,2.864,2.864,0,0,0-.62-1.79l-.427-.542.491-.485a1.871,1.871,0,0,0-1.315-3.2c-.036,0-.077,0-.128,0l-.689.046-.122-.68a2.006,2.006,0,0,0-3.98.358,2.032,2.032,0,0,0,.013.226l.1.886-.911-.03h-.049a2.122,2.122,0,0,0-1.292,3.8l.57.438-.4.6a2.1,2.1,0,0,0,1.755,3.26h1.563V13.554l-2.359-2.359L11.513,10.1l1.268,1.268V8.99h1.543v3.982l1.094-1.094,1.091,1.091-2.186,2.185v4.6H12.781V17.9H11.218A3.647,3.647,0,0,1,7.86,12.835a3.666,3.666,0,0,1,2.05-6.06,3.55,3.55,0,0,1,6.85-.847,3.416,3.416,0,0,1,2.41,5.317Zm-12.7,5.115H2.721l2.537-4.244H3.78L6.552,7.331H5.067L7.727,2.34,8.986,4.7a5.127,5.127,0,0,1,1.049-1.313L8.228,0h-1L2.5,8.874H3.874L1.1,13.659H2.537L0,17.9H6.955v1.852H8.5v-1.08A5.223,5.223,0,0,1,6.475,16.359Zm0,0" fill="#008837"></path>
                  </g>
                </g>
              </svg>