<svg
                class="icon-user"
                xmlns="http://www.w3.org/2000/svg"
                width="17.9"
                height="17.899"
                viewBox="0 0 17.9 17.899"
              >
                <g
                  id="Group_2310"
                  data-name="Group 2310"
                  transform="translate(-1325 -8)"
                >
                  <path
                    id="add-contact"
                    d="M16.838,5.227A8.955,8.955,0,0,1,2.621,15.79,8.962,8.962,0,0,1,8.95.5,8.983,8.983,0,0,1,11.7.94L10.554,2.082A7.548,7.548,0,0,0,3.276,14.439a5.837,5.837,0,0,1,3.336-4.054,3.473,3.473,0,1,1,4.676,0,5.837,5.837,0,0,1,3.336,4.054,7.538,7.538,0,0,0,1.169-8.167ZM8.95,9.893A2.075,2.075,0,1,0,6.875,7.819,2.077,2.077,0,0,0,8.95,9.893Zm0,7.12a7.51,7.51,0,0,0,4.414-1.428,4.415,4.415,0,0,0-8.827,0A7.51,7.51,0,0,0,8.95,17.013Zm0,0"
                    transform="translate(1325 7.5)"
                    fill="#008837"
                  ></path>
                  <g id="wall-clock" transform="translate(1325 8)">
                    <g id="Group_2026" data-name="Group 2026">
                      <g id="Group_2025" data-name="Group 2025">
                        <path
                          id="Path_1096"
                          data-name="Path 1096"
                          d="M15.278,2.621A8.95,8.95,0,0,0,2.621,15.278,8.95,8.95,0,0,0,15.278,2.621ZM8.95,16.5A7.551,7.551,0,1,1,16.5,8.95,7.56,7.56,0,0,1,8.95,16.5Z"
                          fill="#008837"
                        ></path>
                      </g>
                    </g>
                  </g>
                </g>
              </svg>