<svg xmlns="http://www.w3.org/2000/svg" width="24" height="24" viewBox="0 0 24 24">
                <g id="Group_1916" data-name="Group 1916" transform="translate(-202 -470)">
                  <rect id="Rectangle_1671" data-name="Rectangle 1671" width="24" height="24" transform="translate(202 470)" fill="#e8e8e8" opacity="0"></rect>
                  <path id="favorites" d="M17.8,6.957H16.344a7.605,7.605,0,0,1-1.606,7.1,5.882,5.882,0,0,0-3.36-4.076,3.5,3.5,0,1,0-4.713,0A5.883,5.883,0,0,0,3.3,14.055,7.61,7.61,0,0,1,11.136,1.724V.264A9.081,9.081,0,0,0,9.022.016a9.02,9.02,0,0,0-6.378,15.4,9.02,9.02,0,0,0,15.4-6.378,9.087,9.087,0,0,0-.24-2.079ZM6.93,7.392A2.091,2.091,0,1,1,9.022,9.484,2.093,2.093,0,0,1,6.93,7.392ZM4.573,15.208a4.45,4.45,0,0,1,8.9,0,7.594,7.594,0,0,1-8.9,0Zm8.849-11.56L11.876,2.17l2.136-.3L14.952,0l.94,1.867,2.136.3L16.481,3.648l.362,2.066L14.952,4.74l-1.891.974Zm0,0" transform="translate(204.999 473.001)" fill="#008837"></path>
                </g>
              </svg>