<svg xmlns="http://www.w3.org/2000/svg" width="13" height="13" viewBox="0 0 14 14" fill="none">
                            <path d="M2.05023 9.05023C2.81266 8.28784 3.72014 7.72343 4.71026 7.38177C3.64982 6.65139 2.95312 5.42905 2.95312 4.04688C2.95312 1.81543 4.76856 0 7 0C9.23144 0 11.0469 1.81543 11.0469 4.04688C11.0469 5.42905 10.3502 6.65139 9.28971 7.38177C10.2798 7.72343 11.1873 8.28784 11.9497 9.05023C13.2719 10.3724 14 12.1302 14 14H12.9062C12.9062 10.7433 10.2567 8.09375 7 8.09375C3.74328 8.09375 1.09375 10.7433 1.09375 14H0C0 12.1302 0.728137 10.3724 2.05023 9.05023ZM7 7C8.62835 7 9.95312 5.67525 9.95312 4.04688C9.95312 2.4185 8.62835 1.09375 7 1.09375C5.37165 1.09375 4.04688 2.4185 4.04688 4.04688C4.04688 5.67525 5.37165 7 7 7Z" fill="#6C6E70"></path>
                            <line x1="1" y1="13.5" x2="13" y2="13.5" stroke="#6C6E70"></line>
                        </svg>