<svg
                xmlns="http://www.w3.org/2000/svg"
                width="24"
                height="24"
                viewBox="0 0 24 24"
              >
                <g
                  id="Group_1903"
                  data-name="Group 1903"
                  transform="translate(-27 -152)"
                >
                  <rect
                    id="Rectangle_1657"
                    data-name="Rectangle 1657"
                    width="24"
                    height="24"
                    transform="translate(27 152)"
                    fill="#e8e8e8"
                    opacity="0"
                  ></rect>
                  <path
                    id="earth"
                    d="M16.162,2.773a9.468,9.468,0,0,0-13.389,0,9.629,9.629,0,0,0-.713.8h0l0,.008A9.468,9.468,0,0,0,9.467,18.935,9.468,9.468,0,0,0,16.162,2.773ZM9.467,1.479a7.952,7.952,0,0,1,2.652.453,3.425,3.425,0,0,1-.1.712,1.247,1.247,0,0,1-.482.752,2.407,2.407,0,0,1-.68.221l-.142.033a3.6,3.6,0,0,0-2.834,2.2c-.046.127-.327.252-.6.373A2.7,2.7,0,0,0,6,7.156a3.858,3.858,0,0,0-.566,1.475,7,7,0,0,1-1.646-2.1,3.673,3.673,0,0,1-.381-2.272A7.972,7.972,0,0,1,9.467,1.479Zm4.85,12.856a10.047,10.047,0,0,1-.655,1.672c-.031.051-.164.243-.3.432a7.934,7.934,0,0,1-2.488.893,6.89,6.89,0,0,0-.36-1.42,3.6,3.6,0,0,0-1.332-1.738A5.108,5.108,0,0,0,8.7,13.9a2.227,2.227,0,0,1-.467-.286,1.647,1.647,0,0,1-.377-.964c-.017-.113-.031-.229-.046-.351-.018-.147-.037-.3-.063-.458a6.034,6.034,0,0,0,1.811-.357,4.14,4.14,0,0,0,.4-.217,2.616,2.616,0,0,1,.272-.149,1.306,1.306,0,0,1,1.49.646c.046.078.091.169.139.266a2.491,2.491,0,0,0,.805,1.044,2.019,2.019,0,0,0,1.288.294c.264-.01.324,0,.381.042.108.085.14.438-.014.924ZM1.479,9.468a7.944,7.944,0,0,1,.645-3.143,6.14,6.14,0,0,0,.337.853A8.688,8.688,0,0,0,4.668,9.926c.089.077.179.154.27.231a4,4,0,0,1,1.209,1.363,3.946,3.946,0,0,1,.2.962c.016.126.032.256.051.388A3.045,3.045,0,0,0,7.226,14.7a3.393,3.393,0,0,0,.8.518,3.844,3.844,0,0,1,.346.193,2.19,2.19,0,0,1,.768,1.039,5.174,5.174,0,0,1,.26,1.008A8,8,0,0,1,1.479,9.468Zm14.377,4.79a2,2,0,0,0-.607-2.007,1.9,1.9,0,0,0-1.354-.36c-.236.009-.333.007-.409-.044a1.439,1.439,0,0,1-.306-.476c-.056-.113-.114-.229-.183-.348a2.973,2.973,0,0,0-1.419-1.238,2.453,2.453,0,0,0-1.941-.021A3.832,3.832,0,0,0,9.2,10a2.9,2.9,0,0,1-.256.142,5.239,5.239,0,0,1-1.668.232c-.092-.047-.25-.219-.374-.83a2.309,2.309,0,0,1,.343-1.578,1.652,1.652,0,0,1,.639-.386A2.26,2.26,0,0,0,9.276,6.352,2.138,2.138,0,0,1,11.057,5.09l.132-.03a3.577,3.577,0,0,0,1.126-.4,2.685,2.685,0,0,0,1.136-1.632,4.036,4.036,0,0,0,.088-.426,7.979,7.979,0,0,1,2.317,11.66Zm0,0"
                    transform="translate(29.417 155)"
                    fill="#008837"
                  ></path>
                </g>
              </svg>